<svg xmlns="http://www.w3.org/2000/svg" xmlns:xlink="http://www.w3.org/1999/xlink" width="500" zoomAndPan="magnify" viewBox="0 0 375 187.499995" height="250" preserveAspectRatio="xMidYMid meet" version="1.0"><defs><g/><clipPath id="90acc99478"><path d="M 134.375 24 L 136.617188 24 L 136.617188 163 L 134.375 163 Z M 134.375 24 " clip-rule="nonzero"/></clipPath></defs><path fill="#545454" d="M 83.203125 38.738281 L 84.183594 37.96875 C 84.4375 37.773438 84.71875 37.675781 85.039062 37.671875 C 85.355469 37.667969 85.644531 37.765625 85.898438 37.957031 L 86.230469 38.210938 C 86.425781 38.355469 86.542969 38.546875 86.585938 38.785156 C 86.632812 39.023438 86.589844 39.242188 86.464844 39.449219 C 86.3125 39.695312 86.242188 39.96875 86.25 40.257812 C 86.257812 40.550781 86.347656 40.816406 86.515625 41.054688 L 87.171875 41.984375 C 87.394531 42.296875 87.683594 42.519531 88.042969 42.648438 L 88.042969 44.441406 C 87.605469 45.117188 86.992188 45.542969 86.207031 45.71875 C 86.148438 45.730469 86.09375 45.738281 86.035156 45.746094 C 85.65625 45.796875 85.296875 45.730469 84.960938 45.546875 C 84.621094 45.363281 84.371094 45.101562 84.203125 44.757812 C 84.011719 44.402344 83.941406 44.027344 83.996094 43.628906 C 84.046875 43.230469 84.210938 42.886719 84.488281 42.59375 C 84.605469 42.464844 84.664062 42.316406 84.65625 42.144531 C 84.652344 41.96875 84.585938 41.824219 84.457031 41.707031 C 84.332031 41.589844 84.179688 41.53125 84.007812 41.539062 C 83.835938 41.546875 83.691406 41.613281 83.574219 41.742188 C 83.351562 41.976562 83.171875 42.242188 83.03125 42.535156 C 82.894531 42.828125 82.800781 43.136719 82.757812 43.457031 C 82.714844 43.777344 82.722656 44.097656 82.78125 44.417969 C 82.835938 44.738281 82.941406 45.039062 83.089844 45.328125 C 83.296875 45.734375 83.578125 46.082031 83.9375 46.363281 C 84.296875 46.644531 84.703125 46.835938 85.148438 46.9375 C 85.222656 47.332031 85.363281 47.703125 85.5625 48.050781 C 85.761719 48.398438 86.015625 48.707031 86.316406 48.972656 C 86.617188 49.238281 86.953125 49.449219 87.328125 49.601562 C 87.699219 49.757812 88.085938 49.847656 88.484375 49.871094 C 88.550781 49.875 88.617188 49.878906 88.683594 49.878906 C 89.101562 49.871094 89.507812 49.796875 89.902344 49.652344 C 90.292969 49.507812 90.652344 49.300781 90.976562 49.035156 C 91.296875 48.765625 91.566406 48.453125 91.78125 48.09375 C 91.996094 47.734375 92.144531 47.347656 92.230469 46.9375 C 92.671875 46.835938 93.070312 46.640625 93.421875 46.359375 C 93.777344 46.078125 94.054688 45.734375 94.253906 45.328125 C 94.40625 45.039062 94.507812 44.730469 94.5625 44.410156 C 94.617188 44.085938 94.625 43.765625 94.578125 43.441406 C 94.535156 43.117188 94.441406 42.808594 94.300781 42.515625 C 94.160156 42.21875 93.976562 41.953125 93.753906 41.714844 C 93.632812 41.589844 93.488281 41.527344 93.320312 41.523438 C 93.148438 41.515625 93 41.574219 92.875 41.691406 C 92.75 41.808594 92.683594 41.949219 92.675781 42.121094 C 92.667969 42.292969 92.722656 42.441406 92.839844 42.566406 C 93.121094 42.863281 93.289062 43.210938 93.34375 43.617188 C 93.398438 44.019531 93.332031 44.402344 93.140625 44.761719 C 92.972656 45.105469 92.722656 45.367188 92.386719 45.550781 C 92.050781 45.730469 91.691406 45.796875 91.3125 45.746094 C 91.25 45.738281 91.191406 45.730469 91.132812 45.71875 C 90.34375 45.542969 89.734375 45.117188 89.292969 44.441406 L 89.292969 42.648438 C 89.652344 42.519531 89.941406 42.296875 90.164062 41.984375 L 90.820312 41.054688 C 90.988281 40.816406 91.078125 40.550781 91.085938 40.257812 C 91.097656 39.96875 91.023438 39.695312 90.871094 39.449219 C 90.746094 39.242188 90.703125 39.023438 90.75 38.785156 C 90.792969 38.546875 90.910156 38.355469 91.105469 38.210938 L 91.441406 37.957031 C 91.695312 37.765625 91.980469 37.667969 92.296875 37.671875 C 92.617188 37.675781 92.902344 37.773438 93.152344 37.96875 L 94.132812 38.738281 C 94.269531 38.84375 94.421875 38.886719 94.59375 38.863281 C 94.765625 38.84375 94.902344 38.765625 95.011719 38.628906 C 95.117188 38.492188 95.160156 38.339844 95.136719 38.167969 C 95.117188 37.996094 95.039062 37.859375 94.902344 37.753906 L 93.921875 36.984375 C 93.691406 36.804688 93.4375 36.667969 93.160156 36.570312 C 92.882812 36.472656 92.601562 36.425781 92.308594 36.421875 C 92.015625 36.421875 91.730469 36.464844 91.453125 36.558594 C 91.171875 36.648438 90.917969 36.785156 90.683594 36.960938 L 90.347656 37.214844 C 90.132812 37.378906 89.953125 37.578125 89.808594 37.808594 C 89.667969 38.039062 89.570312 38.285156 89.519531 38.554688 C 89.46875 38.820312 89.46875 39.085938 89.519531 39.355469 C 89.566406 39.621094 89.664062 39.871094 89.808594 40.101562 C 89.855469 40.179688 89.851562 40.257812 89.800781 40.332031 L 89.140625 41.265625 C 89.089844 41.34375 89.019531 41.402344 88.933594 41.445312 C 88.851562 41.488281 88.761719 41.511719 88.667969 41.511719 C 88.574219 41.511719 88.484375 41.488281 88.402344 41.445312 C 88.316406 41.402344 88.25 41.34375 88.195312 41.265625 L 87.539062 40.332031 C 87.484375 40.257812 87.480469 40.179688 87.53125 40.101562 C 87.671875 39.871094 87.769531 39.621094 87.816406 39.355469 C 87.867188 39.085938 87.867188 38.820312 87.816406 38.554688 C 87.765625 38.285156 87.671875 38.039062 87.527344 37.808594 C 87.382812 37.578125 87.203125 37.378906 86.988281 37.214844 L 86.652344 36.960938 C 86.417969 36.785156 86.164062 36.648438 85.886719 36.558594 C 85.609375 36.464844 85.324219 36.421875 85.03125 36.421875 C 84.738281 36.425781 84.453125 36.472656 84.175781 36.570312 C 83.898438 36.667969 83.644531 36.804688 83.414062 36.984375 L 82.433594 37.753906 C 82.300781 37.859375 82.226562 38 82.207031 38.167969 C 82.1875 38.335938 82.230469 38.488281 82.335938 38.621094 C 82.441406 38.753906 82.578125 38.832031 82.746094 38.855469 C 82.914062 38.878906 83.066406 38.839844 83.203125 38.738281 Z M 88.667969 45.65625 C 89.265625 46.332031 90.007812 46.761719 90.890625 46.945312 C 90.90625 46.949219 90.921875 46.949219 90.933594 46.953125 C 90.855469 47.203125 90.738281 47.433594 90.585938 47.648438 C 90.429688 47.859375 90.242188 48.042969 90.027344 48.191406 C 89.8125 48.34375 89.578125 48.457031 89.328125 48.53125 C 89.074219 48.605469 88.816406 48.636719 88.554688 48.625 C 88.0625 48.585938 87.625 48.414062 87.242188 48.109375 C 86.855469 47.800781 86.589844 47.414062 86.441406 46.945312 L 86.445312 46.945312 C 87.328125 46.761719 88.070312 46.332031 88.667969 45.65625 Z M 73.484375 66.734375 C 73.652344 66.503906 73.769531 66.253906 73.835938 65.976562 C 73.90625 65.699219 73.917969 65.421875 73.875 65.140625 C 73.832031 64.863281 73.734375 64.601562 73.589844 64.355469 C 73.441406 64.113281 73.253906 63.90625 73.023438 63.738281 C 72.886719 63.636719 72.730469 63.601562 72.5625 63.628906 C 72.390625 63.652344 72.253906 63.734375 72.152344 63.875 C 72.050781 64.015625 72.011719 64.167969 72.039062 64.339844 C 72.066406 64.507812 72.148438 64.644531 72.285156 64.746094 C 72.484375 64.894531 72.601562 65.085938 72.640625 65.332031 C 72.675781 65.574219 72.621094 65.796875 72.476562 65.996094 C 72.332031 66.191406 72.136719 66.3125 71.890625 66.347656 C 71.648438 66.386719 71.429688 66.332031 71.230469 66.1875 C 71.089844 66.085938 70.9375 66.050781 70.765625 66.074219 C 70.597656 66.101562 70.460938 66.183594 70.359375 66.324219 C 70.257812 66.460938 70.21875 66.617188 70.246094 66.785156 C 70.269531 66.953125 70.351562 67.089844 70.488281 67.195312 C 70.71875 67.363281 70.972656 67.480469 71.246094 67.546875 C 71.523438 67.613281 71.800781 67.625 72.082031 67.582031 C 72.363281 67.539062 72.625 67.445312 72.867188 67.296875 C 73.109375 67.152344 73.316406 66.964844 73.484375 66.734375 Z M 72.140625 55.523438 C 72.246094 55.539062 72.351562 55.546875 72.457031 55.546875 C 72.863281 55.546875 73.234375 55.441406 73.578125 55.226562 C 73.921875 55.015625 74.1875 54.726562 74.367188 54.367188 C 74.546875 54.003906 74.621094 53.625 74.585938 53.222656 C 74.550781 52.816406 74.414062 52.453125 74.175781 52.128906 C 74.070312 51.992188 73.933594 51.910156 73.765625 51.882812 C 73.59375 51.859375 73.4375 51.898438 73.300781 52 C 73.160156 52.101562 73.078125 52.238281 73.054688 52.410156 C 73.027344 52.582031 73.066406 52.734375 73.171875 52.875 C 73.316406 53.070312 73.371094 53.292969 73.335938 53.535156 C 73.300781 53.78125 73.183594 53.976562 72.984375 54.121094 C 72.785156 54.269531 72.566406 54.324219 72.320312 54.289062 C 72.078125 54.25 71.882812 54.136719 71.734375 53.9375 C 71.632812 53.796875 71.496094 53.714844 71.324219 53.691406 C 71.15625 53.667969 71 53.703125 70.863281 53.808594 C 70.722656 53.910156 70.640625 54.046875 70.617188 54.21875 C 70.589844 54.386719 70.628906 54.542969 70.734375 54.679688 C 71.082031 55.160156 71.554688 55.4375 72.140625 55.523438 Z M 72.714844 60.933594 C 72.882812 60.707031 73.003906 60.453125 73.074219 60.179688 C 73.144531 59.90625 73.160156 59.625 73.117188 59.34375 C 73.078125 59.0625 72.984375 58.800781 72.839844 58.558594 C 72.695312 58.3125 72.507812 58.105469 72.28125 57.933594 C 72.144531 57.832031 71.988281 57.789062 71.816406 57.8125 C 71.644531 57.839844 71.507812 57.917969 71.402344 58.058594 C 71.300781 58.195312 71.261719 58.351562 71.285156 58.523438 C 71.3125 58.695312 71.394531 58.832031 71.535156 58.9375 C 71.730469 59.082031 71.847656 59.277344 71.882812 59.523438 C 71.917969 59.765625 71.863281 59.988281 71.714844 60.183594 C 71.566406 60.382812 71.371094 60.5 71.125 60.535156 C 70.882812 60.570312 70.660156 60.511719 70.464844 60.363281 C 70.324219 60.261719 70.171875 60.222656 70 60.246094 C 69.828125 60.269531 69.691406 60.351562 69.589844 60.492188 C 69.484375 60.628906 69.445312 60.785156 69.472656 60.953125 C 69.496094 61.125 69.578125 61.261719 69.714844 61.367188 C 69.941406 61.535156 70.195312 61.65625 70.46875 61.726562 C 70.746094 61.796875 71.023438 61.808594 71.304688 61.769531 C 71.585938 61.730469 71.847656 61.636719 72.09375 61.492188 C 72.335938 61.347656 72.542969 61.160156 72.714844 60.933594 Z M 105.875 66.1875 C 105.675781 66.332031 105.453125 66.386719 105.210938 66.351562 C 104.964844 66.3125 104.769531 66.195312 104.625 65.996094 C 104.480469 65.796875 104.425781 65.574219 104.460938 65.332031 C 104.5 65.085938 104.617188 64.894531 104.816406 64.746094 C 104.957031 64.644531 105.042969 64.507812 105.070312 64.335938 C 105.097656 64.167969 105.058594 64.011719 104.957031 63.871094 C 104.851562 63.730469 104.714844 63.648438 104.542969 63.621094 C 104.371094 63.597656 104.21875 63.636719 104.078125 63.738281 C 103.730469 63.996094 103.480469 64.328125 103.332031 64.734375 C 103.183594 65.140625 103.160156 65.554688 103.265625 65.976562 C 103.367188 66.398438 103.578125 66.753906 103.898438 67.046875 C 104.21875 67.339844 104.59375 67.519531 105.019531 67.585938 C 105.128906 67.601562 105.238281 67.609375 105.351562 67.609375 C 105.816406 67.609375 106.238281 67.472656 106.613281 67.195312 C 106.75 67.089844 106.832031 66.953125 106.855469 66.785156 C 106.882812 66.617188 106.84375 66.460938 106.742188 66.324219 C 106.640625 66.1875 106.503906 66.105469 106.335938 66.078125 C 106.167969 66.050781 106.011719 66.085938 105.875 66.1875 Z M 88.667969 62.65625 C 88.953125 62.65625 89.226562 62.601562 89.488281 62.492188 C 89.75 62.386719 89.980469 62.230469 90.183594 62.03125 C 90.382812 61.828125 90.539062 61.597656 90.648438 61.335938 C 90.753906 61.074219 90.808594 60.800781 90.808594 60.515625 C 90.808594 60.34375 90.75 60.195312 90.628906 60.074219 C 90.503906 59.953125 90.359375 59.890625 90.1875 59.890625 C 90.011719 59.890625 89.867188 59.953125 89.742188 60.074219 C 89.621094 60.195312 89.5625 60.34375 89.5625 60.515625 C 89.5625 60.761719 89.472656 60.972656 89.300781 61.148438 C 89.125 61.320312 88.914062 61.40625 88.667969 61.40625 C 88.421875 61.40625 88.210938 61.320312 88.039062 61.148438 C 87.863281 60.972656 87.777344 60.761719 87.777344 60.515625 C 87.777344 60.34375 87.714844 60.195312 87.59375 60.074219 C 87.472656 59.953125 87.324219 59.890625 87.152344 59.890625 C 86.980469 59.890625 86.832031 59.953125 86.710938 60.074219 C 86.585938 60.195312 86.527344 60.34375 86.527344 60.515625 C 86.527344 60.800781 86.582031 61.074219 86.691406 61.335938 C 86.796875 61.597656 86.953125 61.828125 87.15625 62.03125 C 87.355469 62.230469 87.585938 62.386719 87.847656 62.492188 C 88.109375 62.601562 88.382812 62.65625 88.667969 62.65625 Z M 106.636719 60.363281 C 106.441406 60.511719 106.21875 60.570312 105.976562 60.535156 C 105.734375 60.5 105.539062 60.382812 105.390625 60.183594 C 105.242188 59.988281 105.1875 59.765625 105.222656 59.523438 C 105.253906 59.277344 105.371094 59.082031 105.570312 58.9375 C 105.707031 58.832031 105.789062 58.695312 105.8125 58.523438 C 105.839844 58.355469 105.796875 58.199219 105.695312 58.0625 C 105.59375 57.921875 105.453125 57.839844 105.285156 57.816406 C 105.113281 57.792969 104.957031 57.832031 104.820312 57.933594 C 104.59375 58.105469 104.40625 58.3125 104.261719 58.558594 C 104.117188 58.800781 104.023438 59.0625 103.980469 59.34375 C 103.941406 59.625 103.957031 59.90625 104.027344 60.179688 C 104.097656 60.457031 104.21875 60.707031 104.386719 60.933594 C 104.558594 61.164062 104.765625 61.347656 105.007812 61.492188 C 105.253906 61.636719 105.515625 61.730469 105.796875 61.773438 C 106.078125 61.8125 106.359375 61.796875 106.632812 61.726562 C 106.910156 61.65625 107.160156 61.535156 107.386719 61.367188 C 107.527344 61.261719 107.609375 61.125 107.632812 60.953125 C 107.660156 60.78125 107.621094 60.628906 107.515625 60.488281 C 107.414062 60.347656 107.273438 60.269531 107.101562 60.242188 C 106.933594 60.21875 106.777344 60.261719 106.636719 60.363281 Z M 111.523438 52.929688 C 112.011719 52.929688 112.476562 52.828125 112.917969 52.625 C 113.359375 52.421875 113.738281 52.132812 114.054688 51.765625 L 117.421875 47.832031 C 117.695312 47.511719 117.898438 47.152344 118.035156 46.753906 C 118.171875 46.355469 118.234375 45.945312 118.214844 45.523438 C 118.195312 45.101562 118.101562 44.699219 117.929688 44.3125 C 117.757812 43.929688 117.523438 43.585938 117.222656 43.292969 L 116.367188 42.449219 L 116.269531 41.0625 C 116.238281 40.621094 116.132812 40.199219 115.957031 39.796875 C 115.777344 39.394531 115.535156 39.03125 115.230469 38.710938 C 114.925781 38.394531 114.574219 38.132812 114.179688 37.9375 C 113.785156 37.738281 113.371094 37.617188 112.929688 37.5625 L 112.367188 37.496094 C 111.691406 37.417969 111.136719 37.117188 110.703125 36.589844 L 109.101562 34.648438 C 108.820312 34.304688 108.496094 34.011719 108.128906 33.765625 C 107.757812 33.519531 107.363281 33.332031 106.9375 33.203125 C 106.515625 33.074219 106.082031 33.011719 105.636719 33.011719 C 105.195312 33.011719 104.761719 33.074219 104.335938 33.203125 L 99.449219 34.679688 C 99.300781 34.109375 99.066406 33.582031 98.742188 33.089844 C 98.421875 32.601562 98.027344 32.175781 97.5625 31.816406 C 97.097656 31.457031 96.589844 31.179688 96.035156 30.992188 C 95.480469 30.800781 94.90625 30.707031 94.320312 30.703125 L 83.015625 30.703125 C 82.433594 30.707031 81.863281 30.800781 81.3125 30.988281 C 80.761719 31.175781 80.253906 31.449219 79.789062 31.804688 C 79.328125 32.160156 78.933594 32.578125 78.609375 33.066406 C 78.289062 33.550781 78.050781 34.074219 77.898438 34.636719 L 73 33.203125 C 72.574219 33.074219 72.140625 33.011719 71.699219 33.011719 C 71.253906 33.011719 70.820312 33.074219 70.398438 33.203125 C 69.972656 33.332031 69.578125 33.519531 69.210938 33.765625 C 68.839844 34.011719 68.515625 34.304688 68.234375 34.648438 L 66.632812 36.589844 C 66.203125 37.117188 65.648438 37.417969 64.96875 37.496094 L 64.40625 37.5625 C 63.96875 37.617188 63.550781 37.738281 63.15625 37.9375 C 62.761719 38.132812 62.410156 38.394531 62.105469 38.710938 C 61.800781 39.03125 61.558594 39.394531 61.382812 39.796875 C 61.203125 40.199219 61.097656 40.621094 61.066406 41.0625 L 60.96875 42.449219 L 60.113281 43.292969 C 59.8125 43.585938 59.578125 43.929688 59.40625 44.3125 C 59.234375 44.699219 59.140625 45.101562 59.121094 45.523438 C 59.105469 45.945312 59.164062 46.355469 59.300781 46.753906 C 59.4375 47.152344 59.640625 47.511719 59.914062 47.832031 L 63.28125 51.765625 C 63.535156 52.058594 63.828125 52.304688 64.167969 52.496094 C 64.507812 52.691406 64.867188 52.820312 65.253906 52.882812 C 65.636719 52.949219 66.019531 52.945312 66.40625 52.878906 C 66.789062 52.808594 67.148438 52.675781 67.484375 52.476562 L 68.441406 51.921875 L 66.652344 59.878906 C 66.328125 61.316406 66.3125 62.757812 66.597656 64.203125 C 66.882812 65.648438 67.449219 66.976562 68.292969 68.179688 L 71.660156 72.980469 C 71.949219 73.390625 72.324219 73.707031 72.777344 73.929688 L 72.777344 88.417969 C 72.777344 88.796875 72.667969 89.140625 72.441406 89.445312 C 72.214844 89.75 71.921875 89.957031 71.558594 90.066406 L 70.578125 90.363281 C 70.273438 90.457031 69.992188 90.59375 69.730469 90.777344 C 69.46875 90.960938 69.246094 91.179688 69.054688 91.4375 C 68.867188 91.691406 68.722656 91.972656 68.621094 92.273438 C 68.523438 92.578125 68.472656 92.886719 68.476562 93.207031 L 68.476562 94.789062 L 67.808594 94.789062 C 67.472656 94.789062 67.140625 94.824219 66.808594 94.886719 C 66.480469 94.953125 66.160156 95.050781 65.851562 95.179688 C 65.542969 95.308594 65.246094 95.464844 64.96875 95.652344 C 64.6875 95.839844 64.429688 96.050781 64.195312 96.289062 C 63.957031 96.527344 63.746094 96.785156 63.558594 97.0625 C 63.371094 97.339844 63.214844 97.636719 63.085938 97.945312 C 62.957031 98.253906 62.859375 98.574219 62.792969 98.902344 C 62.730469 99.234375 62.695312 99.566406 62.695312 99.902344 L 62.695312 109.492188 C 62.695312 109.824219 62.726562 110.152344 62.792969 110.476562 C 62.855469 110.800781 62.949219 111.113281 63.074219 111.421875 C 63.199219 111.726562 63.355469 112.019531 63.535156 112.296875 C 63.71875 112.570312 63.921875 112.828125 64.15625 113.0625 C 64.386719 113.300781 64.636719 113.511719 64.910156 113.699219 C 65.183594 113.886719 65.46875 114.046875 65.773438 114.179688 C 66.078125 114.3125 66.390625 114.414062 66.714844 114.484375 C 67.035156 114.554688 67.363281 114.59375 67.695312 114.601562 L 67.695312 115.230469 C 67.695312 115.644531 67.773438 116.042969 67.933594 116.421875 C 68.089844 116.804688 68.316406 117.144531 68.609375 117.4375 C 68.902344 117.730469 69.238281 117.957031 69.621094 118.113281 C 70.003906 118.273438 70.402344 118.351562 70.816406 118.351562 L 106.519531 118.351562 C 106.933594 118.351562 107.332031 118.273438 107.714844 118.113281 C 108.097656 117.957031 108.433594 117.730469 108.726562 117.4375 C 109.019531 117.144531 109.246094 116.804688 109.40625 116.421875 C 109.5625 116.042969 109.644531 115.644531 109.644531 115.230469 L 109.644531 114.601562 C 109.972656 114.59375 110.300781 114.554688 110.625 114.484375 C 110.945312 114.414062 111.261719 114.3125 111.5625 114.179688 C 111.867188 114.046875 112.15625 113.886719 112.425781 113.699219 C 112.699219 113.511719 112.949219 113.300781 113.183594 113.0625 C 113.414062 112.828125 113.621094 112.570312 113.800781 112.296875 C 113.984375 112.019531 114.136719 111.726562 114.261719 111.421875 C 114.386719 111.113281 114.480469 110.800781 114.546875 110.476562 C 114.609375 110.152344 114.640625 109.824219 114.640625 109.492188 L 114.640625 99.902344 C 114.640625 99.566406 114.609375 99.234375 114.542969 98.902344 C 114.476562 98.574219 114.378906 98.253906 114.25 97.945312 C 114.121094 97.636719 113.964844 97.339844 113.777344 97.0625 C 113.59375 96.785156 113.378906 96.527344 113.144531 96.289062 C 112.90625 96.050781 112.648438 95.839844 112.367188 95.652344 C 112.089844 95.464844 111.796875 95.308594 111.484375 95.179688 C 111.175781 95.050781 110.855469 94.953125 110.527344 94.886719 C 110.199219 94.824219 109.867188 94.789062 109.53125 94.789062 L 108.863281 94.789062 L 108.863281 93.207031 C 108.863281 92.886719 108.8125 92.578125 108.714844 92.273438 C 108.613281 91.972656 108.46875 91.691406 108.28125 91.4375 C 108.089844 91.179688 107.867188 90.960938 107.605469 90.777344 C 107.34375 90.59375 107.0625 90.457031 106.757812 90.363281 L 105.757812 90.058594 C 105.402344 89.953125 105.113281 89.746094 104.890625 89.445312 C 104.667969 89.148438 104.558594 88.808594 104.558594 88.4375 L 104.558594 73.929688 C 105.015625 73.707031 105.386719 73.390625 105.675781 72.980469 L 109.042969 68.179688 C 109.886719 66.976562 110.453125 65.648438 110.738281 64.203125 C 111.027344 62.757812 111.007812 61.316406 110.683594 59.878906 L 108.894531 51.921875 L 109.851562 52.476562 C 110.367188 52.78125 110.925781 52.929688 111.523438 52.929688 Z M 113.492188 50.5 L 110.457031 48.160156 C 110.328125 48.058594 110.261719 47.929688 110.253906 47.769531 C 110.25 47.605469 110.304688 47.472656 110.425781 47.363281 L 111.441406 46.429688 C 111.542969 46.335938 111.660156 46.292969 111.796875 46.292969 C 111.933594 46.292969 112.050781 46.34375 112.152344 46.4375 L 114.8125 48.960938 Z M 78.96875 36 C 78.972656 35.734375 78.996094 35.472656 79.050781 35.210938 C 79.101562 34.949219 79.179688 34.699219 79.28125 34.453125 C 79.382812 34.207031 79.507812 33.972656 79.652344 33.753906 C 79.800781 33.53125 79.96875 33.328125 80.15625 33.140625 C 80.34375 32.953125 80.550781 32.785156 80.769531 32.636719 C 80.992188 32.488281 81.222656 32.363281 81.46875 32.261719 C 81.714844 32.160156 81.96875 32.085938 82.226562 32.03125 C 82.488281 31.980469 82.75 31.953125 83.015625 31.953125 L 94.320312 31.953125 C 94.585938 31.953125 94.847656 31.980469 95.109375 32.03125 C 95.371094 32.085938 95.621094 32.160156 95.867188 32.261719 C 96.113281 32.363281 96.347656 32.488281 96.566406 32.636719 C 96.789062 32.785156 96.992188 32.953125 97.179688 33.140625 C 97.367188 33.328125 97.535156 33.53125 97.683594 33.753906 C 97.832031 33.972656 97.957031 34.207031 98.058594 34.453125 C 98.160156 34.699219 98.234375 34.949219 98.289062 35.210938 C 98.339844 35.472656 98.367188 35.734375 98.367188 36 L 98.367188 41.777344 C 98.363281 42.617188 98.265625 43.449219 98.074219 44.265625 C 97.878906 45.085938 97.597656 45.871094 97.222656 46.625 C 96.847656 47.378906 96.394531 48.082031 95.859375 48.730469 C 95.324219 49.382812 94.722656 49.960938 94.054688 50.472656 C 92.820312 51.40625 91.433594 51.875 89.886719 51.878906 L 87.449219 51.878906 C 85.90625 51.875 84.515625 51.40625 83.285156 50.472656 C 82.613281 49.960938 82.011719 49.382812 81.476562 48.730469 C 80.941406 48.082031 80.488281 47.378906 80.113281 46.625 C 79.742188 45.871094 79.457031 45.085938 79.265625 44.265625 C 79.070312 43.449219 78.972656 42.617188 78.96875 41.777344 Z M 97.738281 91.261719 L 98.65625 92.410156 C 98.84375 92.648438 98.964844 92.921875 99.011719 93.222656 C 99.058594 93.523438 99.03125 93.816406 98.925781 94.105469 L 98.675781 94.789062 L 91.171875 94.789062 L 90.902344 94.167969 C 90.769531 93.863281 90.730469 93.546875 90.777344 93.222656 C 90.828125 92.894531 90.960938 92.601562 91.175781 92.351562 L 92.066406 91.292969 C 92.589844 90.675781 92.824219 89.960938 92.765625 89.152344 L 91.898438 76.484375 L 98.089844 73.796875 L 97.089844 89.199219 C 97.042969 89.96875 97.257812 90.65625 97.738281 91.261719 Z M 80.308594 89.152344 L 79.253906 73.800781 L 85.453125 76.492188 L 84.632812 89.199219 C 84.582031 89.96875 84.796875 90.65625 85.277344 91.261719 L 86.195312 92.410156 C 86.382812 92.648438 86.503906 92.921875 86.550781 93.222656 C 86.601562 93.523438 86.570312 93.816406 86.46875 94.105469 L 86.214844 94.789062 L 78.710938 94.789062 L 78.441406 94.167969 C 78.3125 93.863281 78.269531 93.546875 78.320312 93.222656 C 78.367188 92.894531 78.5 92.601562 78.714844 92.351562 L 79.605469 91.292969 C 80.132812 90.675781 80.363281 89.960938 80.308594 89.152344 Z M 89.753906 94.660156 L 89.808594 94.789062 L 87.546875 94.789062 L 87.640625 94.539062 C 87.820312 94.046875 87.867188 93.542969 87.785156 93.023438 C 87.703125 92.507812 87.496094 92.042969 87.171875 91.632812 L 86.257812 90.480469 C 85.976562 90.128906 85.847656 89.730469 85.878906 89.28125 L 86.675781 76.96875 C 88.011719 77.371094 89.347656 77.371094 90.679688 76.964844 L 91.519531 89.238281 C 91.554688 89.710938 91.417969 90.125 91.109375 90.488281 L 90.21875 91.542969 C 89.851562 91.976562 89.625 92.472656 89.542969 93.035156 C 89.457031 93.597656 89.527344 94.140625 89.753906 94.660156 Z M 88.042969 96.0625 L 88.042969 102.1875 C 87.925781 102.214844 87.8125 102.253906 87.699219 102.300781 L 84.101562 97.347656 C 85.308594 96.59375 86.625 96.164062 88.042969 96.0625 Z M 86.6875 103.035156 C 86.609375 103.125 86.539062 103.222656 86.476562 103.328125 L 80.652344 101.433594 C 81.191406 100.117188 82.003906 99 83.089844 98.082031 Z M 86.089844 104.515625 C 86.085938 104.574219 86.078125 104.636719 86.078125 104.695312 C 86.078125 104.757812 86.085938 104.816406 86.089844 104.878906 L 80.261719 106.769531 C 79.921875 105.386719 79.921875 104.003906 80.261719 102.621094 Z M 86.476562 106.066406 C 86.539062 106.167969 86.609375 106.265625 86.6875 106.359375 L 83.089844 111.3125 C 82.003906 110.394531 81.191406 109.277344 80.652344 107.960938 Z M 87.699219 107.09375 C 87.8125 107.140625 87.925781 107.175781 88.042969 107.207031 L 88.042969 113.328125 C 86.625 113.230469 85.308594 112.800781 84.101562 112.046875 Z M 87.328125 104.695312 C 87.328125 104.519531 87.363281 104.347656 87.429688 104.183594 C 87.5 104.019531 87.597656 103.875 87.722656 103.75 C 87.847656 103.625 87.992188 103.527344 88.15625 103.460938 C 88.320312 103.390625 88.492188 103.359375 88.667969 103.359375 C 88.847656 103.359375 89.015625 103.390625 89.179688 103.460938 C 89.34375 103.527344 89.488281 103.625 89.613281 103.75 C 89.742188 103.875 89.835938 104.019531 89.90625 104.183594 C 89.972656 104.347656 90.007812 104.519531 90.007812 104.695312 C 90.007812 104.875 89.972656 105.046875 89.90625 105.210938 C 89.835938 105.375 89.742188 105.519531 89.613281 105.644531 C 89.488281 105.769531 89.34375 105.867188 89.179688 105.933594 C 89.015625 106 88.847656 106.035156 88.667969 106.035156 C 88.492188 106.035156 88.320312 106 88.15625 105.933594 C 87.992188 105.867188 87.847656 105.769531 87.722656 105.644531 C 87.597656 105.515625 87.5 105.371094 87.433594 105.207031 C 87.363281 105.046875 87.328125 104.875 87.328125 104.695312 Z M 89.292969 107.207031 C 89.410156 107.175781 89.527344 107.140625 89.640625 107.09375 L 93.234375 112.046875 C 92.027344 112.800781 90.714844 113.230469 89.292969 113.328125 Z M 90.648438 106.359375 C 90.726562 106.265625 90.796875 106.167969 90.859375 106.066406 L 96.6875 107.960938 C 96.148438 109.277344 95.332031 110.394531 94.246094 111.3125 Z M 91.246094 104.878906 C 91.25 104.816406 91.257812 104.757812 91.257812 104.695312 C 91.257812 104.636719 91.25 104.574219 91.246094 104.515625 L 97.074219 102.621094 C 97.414062 104.003906 97.414062 105.386719 97.074219 106.769531 Z M 90.859375 103.328125 C 90.796875 103.222656 90.726562 103.125 90.648438 103.035156 L 94.246094 98.082031 C 95.332031 99 96.148438 100.117188 96.6875 101.433594 Z M 89.640625 102.300781 C 89.527344 102.253906 89.410156 102.214844 89.292969 102.1875 L 89.292969 96.0625 C 90.714844 96.164062 92.027344 96.59375 93.234375 97.347656 Z M 90.921875 75.546875 C 90.203125 75.859375 89.453125 76.015625 88.667969 76.015625 C 87.886719 76.015625 87.132812 75.859375 86.414062 75.546875 L 78.328125 72.035156 C 77.910156 71.855469 77.652344 71.539062 77.554688 71.09375 L 76.03125 63.949219 C 75.695312 62.382812 75.835938 60.863281 76.453125 59.382812 L 80.515625 49.53125 C 81.109375 50.253906 81.78125 50.898438 82.527344 51.46875 C 83.984375 52.570312 85.625 53.125 87.449219 53.125 L 89.886719 53.125 C 91.710938 53.125 93.355469 52.570312 94.808594 51.46875 C 95.5625 50.894531 96.238281 50.242188 96.839844 49.507812 L 100.875 59.347656 C 101.492188 60.820312 101.632812 62.339844 101.300781 63.902344 L 99.78125 71.09375 C 99.683594 71.539062 99.425781 71.855469 99.007812 72.035156 Z M 62.527344 48.960938 L 65.183594 46.4375 C 65.285156 46.34375 65.402344 46.292969 65.539062 46.292969 C 65.675781 46.292969 65.796875 46.335938 65.898438 46.429688 L 66.914062 47.363281 C 67.03125 47.472656 67.089844 47.605469 67.082031 47.769531 C 67.074219 47.929688 67.007812 48.058594 66.878906 48.160156 L 63.84375 50.5 Z M 66.855469 51.398438 C 66.527344 51.589844 66.175781 51.683594 65.796875 51.679688 C 65.417969 51.675781 65.070312 51.578125 64.742188 51.382812 L 67.640625 49.148438 C 67.847656 48.988281 68.011719 48.792969 68.132812 48.5625 C 68.253906 48.328125 68.320312 48.082031 68.328125 47.820312 C 68.339844 47.558594 68.296875 47.308594 68.195312 47.066406 C 68.097656 46.824219 67.949219 46.617188 67.757812 46.441406 L 66.742188 45.507812 C 66.574219 45.359375 66.386719 45.242188 66.179688 45.164062 C 65.96875 45.082031 65.753906 45.042969 65.527344 45.046875 C 65.304688 45.046875 65.089844 45.089844 64.882812 45.171875 C 64.671875 45.257812 64.488281 45.375 64.324219 45.53125 L 61.710938 48.007812 L 60.863281 47.019531 C 60.695312 46.820312 60.566406 46.59375 60.480469 46.34375 C 60.394531 46.097656 60.359375 45.839844 60.371094 45.578125 C 60.382812 45.3125 60.441406 45.0625 60.546875 44.820312 C 60.65625 44.582031 60.800781 44.367188 60.988281 44.183594 L 62.015625 43.175781 C 62.125 43.066406 62.1875 42.933594 62.199219 42.773438 L 62.3125 41.148438 C 62.335938 40.855469 62.40625 40.570312 62.523438 40.300781 C 62.644531 40.03125 62.804688 39.789062 63.011719 39.574219 C 63.214844 39.359375 63.449219 39.1875 63.714844 39.054688 C 63.976562 38.921875 64.257812 38.839844 64.550781 38.804688 L 65.113281 38.738281 C 65.617188 38.679688 66.089844 38.527344 66.53125 38.277344 L 66.625 38.335938 C 67.402344 38.832031 68.015625 39.484375 68.457031 40.296875 L 71.363281 45.601562 C 71.554688 45.949219 71.625 46.324219 71.582031 46.71875 C 71.535156 47.117188 71.382812 47.460938 71.117188 47.757812 L 68.96875 50.171875 Z M 72.683594 72.261719 L 69.316406 67.460938 C 68.574219 66.402344 68.074219 65.234375 67.824219 63.960938 C 67.570312 62.6875 67.585938 61.421875 67.871094 60.15625 L 69.941406 50.957031 L 72.050781 48.589844 C 72.265625 48.347656 72.4375 48.082031 72.570312 47.785156 C 72.703125 47.492188 72.785156 47.183594 72.824219 46.859375 C 72.859375 46.539062 72.847656 46.21875 72.785156 45.902344 C 72.722656 45.585938 72.613281 45.285156 72.460938 45 L 69.554688 39.695312 C 69.058594 38.789062 68.386719 38.042969 67.542969 37.449219 C 67.558594 37.425781 67.582031 37.40625 67.597656 37.386719 L 69.199219 35.445312 C 69.613281 34.9375 70.136719 34.589844 70.761719 34.398438 C 71.390625 34.210938 72.015625 34.210938 72.644531 34.398438 L 77.722656 35.886719 C 77.722656 35.925781 77.722656 35.960938 77.722656 36 L 77.722656 41.777344 C 77.726562 44.152344 78.371094 46.339844 79.652344 48.34375 L 75.300781 58.90625 C 74.582031 60.625 74.421875 62.390625 74.808594 64.207031 L 76.332031 71.351562 C 76.339844 71.390625 76.351562 71.421875 76.363281 71.457031 L 75.222656 72.523438 C 75.042969 72.691406 74.839844 72.816406 74.605469 72.894531 C 74.375 72.96875 74.136719 72.996094 73.890625 72.972656 C 73.648438 72.945312 73.421875 72.871094 73.210938 72.75 C 73 72.625 72.824219 72.460938 72.683594 72.261719 Z M 69.726562 93.207031 C 69.722656 92.828125 69.835938 92.484375 70.0625 92.179688 C 70.289062 91.875 70.582031 91.667969 70.945312 91.558594 L 71.921875 91.261719 C 72.226562 91.167969 72.511719 91.03125 72.769531 90.847656 C 73.03125 90.664062 73.257812 90.445312 73.445312 90.1875 C 73.636719 89.933594 73.78125 89.652344 73.878906 89.351562 C 73.980469 89.046875 74.027344 88.738281 74.027344 88.417969 L 74.027344 74.226562 C 74.039062 74.226562 74.054688 74.230469 74.066406 74.230469 C 74.84375 74.230469 75.511719 73.964844 76.078125 73.4375 L 76.984375 72.585938 C 77.226562 72.84375 77.507812 73.042969 77.832031 73.183594 L 77.964844 73.242188 L 79.0625 89.238281 C 79.09375 89.710938 78.957031 90.125 78.652344 90.484375 L 77.757812 91.542969 C 77.390625 91.976562 77.164062 92.472656 77.082031 93.035156 C 76.996094 93.597656 77.070312 94.140625 77.292969 94.660156 L 77.351562 94.789062 L 69.726562 94.789062 Z M 67.808594 113.355469 C 67.292969 113.355469 66.800781 113.253906 66.328125 113.058594 C 65.855469 112.863281 65.4375 112.585938 65.078125 112.222656 C 64.714844 111.859375 64.4375 111.441406 64.238281 110.96875 C 64.042969 110.496094 63.945312 110.003906 63.945312 109.492188 L 63.945312 99.902344 C 63.945312 99.390625 64.042969 98.898438 64.238281 98.421875 C 64.4375 97.949219 64.714844 97.535156 65.078125 97.171875 C 65.4375 96.808594 65.855469 96.53125 66.328125 96.335938 C 66.800781 96.136719 67.292969 96.039062 67.808594 96.039062 L 83.859375 96.039062 C 83.527344 96.226562 83.207031 96.429688 82.898438 96.652344 C 82.878906 96.660156 82.863281 96.667969 82.847656 96.679688 C 82.832031 96.691406 82.820312 96.703125 82.808594 96.714844 C 81.097656 97.972656 79.910156 99.609375 79.25 101.628906 C 79.25 101.628906 79.246094 101.632812 79.246094 101.636719 C 79.246094 101.636719 79.246094 101.640625 79.246094 101.640625 C 78.582031 103.679688 78.582031 105.714844 79.246094 107.753906 C 79.246094 107.753906 79.246094 107.757812 79.246094 107.757812 C 79.246094 107.761719 79.25 107.765625 79.25 107.769531 C 79.914062 109.785156 81.097656 111.421875 82.808594 112.679688 C 82.820312 112.691406 82.832031 112.703125 82.847656 112.710938 C 82.867188 112.726562 82.890625 112.738281 82.910156 112.753906 C 83.214844 112.972656 83.53125 113.171875 83.859375 113.355469 Z M 108.394531 115.230469 C 108.394531 115.476562 108.34375 115.714844 108.25 115.945312 C 108.15625 116.175781 108.019531 116.378906 107.84375 116.554688 C 107.667969 116.730469 107.464844 116.863281 107.234375 116.960938 C 107.007812 117.054688 106.769531 117.101562 106.519531 117.101562 L 70.816406 117.101562 C 70.570312 117.101562 70.328125 117.054688 70.101562 116.960938 C 69.871094 116.863281 69.667969 116.730469 69.492188 116.554688 C 69.316406 116.378906 69.179688 116.175781 69.085938 115.945312 C 68.992188 115.714844 68.945312 115.476562 68.941406 115.230469 L 68.941406 114.605469 L 108.394531 114.605469 Z M 109.53125 96.039062 C 110.042969 96.039062 110.535156 96.136719 111.007812 96.335938 C 111.480469 96.53125 111.898438 96.808594 112.257812 97.171875 C 112.621094 97.535156 112.902344 97.949219 113.097656 98.421875 C 113.292969 98.898438 113.390625 99.390625 113.390625 99.902344 L 113.390625 109.492188 C 113.390625 110.003906 113.292969 110.496094 113.097656 110.96875 C 112.902344 111.441406 112.621094 111.859375 112.257812 112.222656 C 111.898438 112.585938 111.480469 112.863281 111.007812 113.058594 C 110.535156 113.253906 110.042969 113.355469 109.53125 113.355469 L 93.476562 113.355469 C 93.804688 113.171875 94.121094 112.972656 94.425781 112.753906 C 94.449219 112.738281 94.46875 112.726562 94.492188 112.710938 C 94.503906 112.703125 94.515625 112.691406 94.527344 112.679688 C 96.238281 111.421875 97.421875 109.785156 98.085938 107.769531 C 98.085938 107.765625 98.089844 107.761719 98.089844 107.757812 C 98.089844 107.757812 98.089844 107.753906 98.089844 107.753906 C 98.753906 105.714844 98.753906 103.679688 98.089844 101.640625 C 98.089844 101.640625 98.089844 101.636719 98.089844 101.636719 C 98.089844 101.632812 98.085938 101.628906 98.085938 101.628906 C 97.425781 99.609375 96.238281 97.972656 94.527344 96.714844 C 94.515625 96.703125 94.503906 96.691406 94.492188 96.679688 C 94.472656 96.667969 94.457031 96.660156 94.4375 96.652344 C 94.128906 96.429688 93.808594 96.226562 93.476562 96.039062 Z M 105.394531 91.253906 L 106.390625 91.558594 C 106.753906 91.667969 107.050781 91.875 107.273438 92.179688 C 107.5 92.484375 107.613281 92.828125 107.613281 93.207031 L 107.613281 94.789062 L 100.007812 94.789062 L 100.097656 94.539062 C 100.277344 94.046875 100.328125 93.542969 100.246094 93.023438 C 100.160156 92.507812 99.957031 92.042969 99.632812 91.632812 L 98.714844 90.480469 C 98.433594 90.128906 98.308594 89.730469 98.339844 89.28125 L 99.378906 73.238281 L 99.503906 73.183594 C 99.828125 73.042969 100.109375 72.84375 100.351562 72.585938 L 101.261719 73.4375 C 101.824219 73.964844 102.496094 74.230469 103.269531 74.230469 C 103.28125 74.230469 103.296875 74.230469 103.308594 74.226562 L 103.308594 88.4375 C 103.308594 88.753906 103.355469 89.058594 103.457031 89.359375 C 103.554688 89.660156 103.695312 89.9375 103.882812 90.191406 C 104.070312 90.445312 104.296875 90.664062 104.554688 90.84375 C 104.8125 91.027344 105.089844 91.164062 105.394531 91.253906 Z M 109.464844 60.15625 C 109.75 61.421875 109.765625 62.6875 109.515625 63.960938 C 109.261719 65.234375 108.765625 66.402344 108.019531 67.464844 L 104.65625 72.261719 C 104.515625 72.460938 104.339844 72.625 104.125 72.746094 C 103.914062 72.871094 103.6875 72.945312 103.445312 72.972656 C 103.199219 72.996094 102.964844 72.972656 102.730469 72.894531 C 102.5 72.816406 102.292969 72.691406 102.113281 72.523438 L 100.972656 71.457031 C 100.980469 71.421875 100.996094 71.386719 101.003906 71.351562 L 102.523438 64.160156 C 102.910156 62.34375 102.746094 60.582031 102.03125 58.871094 L 97.699219 48.316406 C 98.972656 46.320312 99.609375 44.140625 99.617188 41.777344 L 99.617188 36 C 99.617188 35.976562 99.613281 35.957031 99.613281 35.933594 L 104.695312 34.398438 C 105.324219 34.210938 105.949219 34.210938 106.574219 34.398438 C 107.203125 34.589844 107.722656 34.9375 108.136719 35.441406 L 109.738281 37.386719 C 109.757812 37.40625 109.777344 37.425781 109.796875 37.449219 C 108.949219 38.042969 108.28125 38.792969 107.78125 39.695312 L 104.878906 45 C 104.722656 45.285156 104.613281 45.585938 104.550781 45.902344 C 104.488281 46.21875 104.476562 46.539062 104.515625 46.859375 C 104.550781 47.183594 104.636719 47.492188 104.765625 47.785156 C 104.898438 48.082031 105.074219 48.347656 105.289062 48.589844 L 107.398438 50.957031 Z M 108.367188 50.171875 L 106.21875 47.757812 C 105.957031 47.460938 105.800781 47.113281 105.753906 46.71875 C 105.710938 46.324219 105.78125 45.949219 105.972656 45.601562 L 108.878906 40.296875 C 109.320312 39.484375 109.933594 38.832031 110.710938 38.335938 L 110.804688 38.277344 C 111.246094 38.527344 111.71875 38.679688 112.222656 38.738281 L 112.785156 38.804688 C 113.078125 38.839844 113.359375 38.921875 113.625 39.054688 C 113.886719 39.1875 114.121094 39.359375 114.328125 39.574219 C 114.53125 39.789062 114.691406 40.03125 114.8125 40.300781 C 114.933594 40.570312 115.003906 40.855469 115.023438 41.148438 L 115.136719 42.773438 C 115.148438 42.933594 115.210938 43.066406 115.324219 43.175781 L 116.347656 44.183594 C 116.535156 44.367188 116.683594 44.582031 116.789062 44.820312 C 116.898438 45.0625 116.957031 45.3125 116.96875 45.578125 C 116.980469 45.839844 116.941406 46.097656 116.855469 46.34375 C 116.769531 46.59375 116.640625 46.820312 116.472656 47.019531 L 115.625 48.007812 L 113.011719 45.53125 C 112.847656 45.375 112.664062 45.257812 112.457031 45.171875 C 112.246094 45.089844 112.03125 45.046875 111.808594 45.046875 C 111.582031 45.042969 111.367188 45.082031 111.15625 45.164062 C 110.949219 45.242188 110.761719 45.359375 110.59375 45.507812 L 109.578125 46.441406 C 109.386719 46.617188 109.242188 46.824219 109.140625 47.066406 C 109.039062 47.308594 108.996094 47.558594 109.007812 47.820312 C 109.019531 48.082031 109.082031 48.328125 109.203125 48.5625 C 109.324219 48.792969 109.488281 48.988281 109.695312 49.148438 L 112.59375 51.382812 C 112.269531 51.578125 111.917969 51.675781 111.539062 51.679688 C 111.160156 51.683594 110.808594 51.589844 110.480469 51.398438 Z M 112.652344 43.292969 C 112.820312 43.292969 112.964844 43.234375 113.085938 43.113281 L 113.859375 42.363281 C 113.984375 42.242188 114.046875 42.097656 114.050781 41.921875 C 114.054688 41.746094 113.996094 41.597656 113.875 41.472656 C 113.753906 41.347656 113.605469 41.285156 113.429688 41.285156 C 113.257812 41.285156 113.109375 41.34375 112.984375 41.46875 L 112.214844 42.21875 C 112.015625 42.417969 111.964844 42.644531 112.074219 42.902344 C 112.179688 43.164062 112.371094 43.292969 112.652344 43.292969 Z M 104.523438 55.546875 C 104.628906 55.546875 104.734375 55.539062 104.839844 55.523438 C 105.425781 55.4375 105.894531 55.15625 106.246094 54.679688 C 106.351562 54.542969 106.390625 54.386719 106.367188 54.214844 C 106.339844 54.046875 106.257812 53.90625 106.121094 53.804688 C 105.980469 53.703125 105.824219 53.664062 105.652344 53.6875 C 105.484375 53.714844 105.347656 53.796875 105.242188 53.9375 C 105.097656 54.136719 104.902344 54.253906 104.65625 54.289062 C 104.414062 54.324219 104.191406 54.269531 103.992188 54.125 C 103.796875 53.976562 103.679688 53.78125 103.640625 53.535156 C 103.605469 53.292969 103.664062 53.070312 103.808594 52.875 C 103.914062 52.734375 103.953125 52.582031 103.929688 52.410156 C 103.902344 52.238281 103.820312 52.101562 103.683594 51.996094 C 103.542969 51.894531 103.386719 51.855469 103.214844 51.882812 C 103.046875 51.90625 102.910156 51.988281 102.804688 52.128906 C 102.566406 52.453125 102.425781 52.816406 102.390625 53.222656 C 102.359375 53.625 102.429688 54.003906 102.613281 54.367188 C 102.792969 54.726562 103.054688 55.015625 103.398438 55.226562 C 103.742188 55.441406 104.117188 55.546875 104.523438 55.546875 Z M 86.4375 64.890625 C 86.265625 64.890625 86.117188 64.949219 85.996094 65.070312 C 85.875 65.195312 85.8125 65.339844 85.8125 65.515625 C 85.8125 65.761719 85.726562 65.972656 85.550781 66.144531 C 85.375 66.320312 85.167969 66.40625 84.917969 66.40625 C 84.671875 66.40625 84.460938 66.320312 84.289062 66.144531 C 84.113281 65.972656 84.027344 65.761719 84.027344 65.515625 C 84.027344 65.339844 83.964844 65.195312 83.84375 65.070312 C 83.722656 64.949219 83.574219 64.890625 83.402344 64.890625 C 83.230469 64.890625 83.082031 64.949219 82.960938 65.070312 C 82.839844 65.195312 82.777344 65.339844 82.777344 65.515625 C 82.777344 65.796875 82.832031 66.070312 82.941406 66.332031 C 83.050781 66.597656 83.203125 66.828125 83.40625 67.027344 C 83.605469 67.230469 83.835938 67.382812 84.101562 67.492188 C 84.363281 67.601562 84.636719 67.65625 84.917969 67.65625 C 85.203125 67.65625 85.476562 67.601562 85.738281 67.492188 C 86 67.382812 86.234375 67.230469 86.433594 67.027344 C 86.636719 66.828125 86.789062 66.597656 86.898438 66.332031 C 87.007812 66.070312 87.0625 65.796875 87.0625 65.515625 C 87.0625 65.339844 87 65.195312 86.878906 65.070312 C 86.757812 64.949219 86.609375 64.890625 86.4375 64.890625 Z M 84.5625 60.515625 C 84.5625 60.34375 84.5 60.195312 84.378906 60.074219 C 84.257812 59.953125 84.109375 59.890625 83.9375 59.890625 C 83.765625 59.890625 83.617188 59.953125 83.496094 60.074219 C 83.375 60.195312 83.3125 60.34375 83.3125 60.515625 C 83.3125 60.761719 83.226562 60.972656 83.050781 61.148438 C 82.878906 61.320312 82.667969 61.40625 82.421875 61.40625 C 82.175781 61.40625 81.964844 61.320312 81.789062 61.148438 C 81.613281 60.972656 81.527344 60.761719 81.527344 60.515625 C 81.527344 60.34375 81.46875 60.195312 81.34375 60.074219 C 81.222656 59.953125 81.074219 59.890625 80.902344 59.890625 C 80.730469 59.890625 80.582031 59.953125 80.460938 60.074219 C 80.339844 60.195312 80.277344 60.34375 80.277344 60.515625 C 80.277344 60.800781 80.332031 61.074219 80.441406 61.335938 C 80.550781 61.597656 80.703125 61.828125 80.90625 62.03125 C 81.105469 62.230469 81.339844 62.386719 81.601562 62.496094 C 81.863281 62.601562 82.136719 62.65625 82.421875 62.65625 C 82.703125 62.65625 82.976562 62.601562 83.242188 62.496094 C 83.503906 62.386719 83.734375 62.230469 83.933594 62.03125 C 84.136719 61.828125 84.289062 61.597656 84.398438 61.335938 C 84.507812 61.074219 84.5625 60.800781 84.5625 60.515625 Z M 90.1875 69.886719 C 90.011719 69.886719 89.867188 69.949219 89.742188 70.070312 C 89.621094 70.191406 89.5625 70.339844 89.5625 70.511719 C 89.5625 70.757812 89.472656 70.96875 89.300781 71.144531 C 89.125 71.316406 88.914062 71.40625 88.667969 71.40625 C 88.421875 71.40625 88.210938 71.316406 88.039062 71.144531 C 87.863281 70.96875 87.777344 70.757812 87.777344 70.511719 C 87.777344 70.339844 87.714844 70.191406 87.59375 70.070312 C 87.472656 69.949219 87.324219 69.886719 87.152344 69.886719 C 86.980469 69.886719 86.832031 69.949219 86.710938 70.070312 C 86.585938 70.191406 86.527344 70.339844 86.527344 70.511719 C 86.527344 70.796875 86.582031 71.070312 86.6875 71.332031 C 86.796875 71.59375 86.953125 71.824219 87.152344 72.027344 C 87.355469 72.226562 87.585938 72.382812 87.847656 72.492188 C 88.109375 72.601562 88.382812 72.652344 88.667969 72.65625 C 88.953125 72.652344 89.226562 72.601562 89.488281 72.492188 C 89.75 72.382812 89.980469 72.226562 90.183594 72.027344 C 90.382812 71.824219 90.539062 71.59375 90.648438 71.332031 C 90.757812 71.070312 90.808594 70.796875 90.808594 70.511719 C 90.808594 70.339844 90.75 70.191406 90.628906 70.070312 C 90.503906 69.949219 90.359375 69.886719 90.1875 69.886719 Z M 64.351562 41.46875 C 64.226562 41.34375 64.078125 41.285156 63.90625 41.285156 C 63.730469 41.285156 63.582031 41.347656 63.460938 41.472656 C 63.339844 41.597656 63.28125 41.746094 63.285156 41.921875 C 63.289062 42.097656 63.351562 42.242188 63.480469 42.363281 L 64.25 43.113281 C 64.371094 43.234375 64.519531 43.292969 64.695312 43.292969 C 64.867188 43.289062 65.011719 43.226562 65.132812 43.105469 C 65.253906 42.980469 65.3125 42.832031 65.308594 42.660156 C 65.308594 42.488281 65.246094 42.339844 65.121094 42.21875 Z M 93.933594 64.890625 C 93.761719 64.890625 93.613281 64.949219 93.492188 65.070312 C 93.371094 65.195312 93.308594 65.339844 93.308594 65.515625 C 93.308594 65.761719 93.222656 65.972656 93.046875 66.144531 C 92.875 66.320312 92.664062 66.40625 92.417969 66.40625 C 92.171875 66.40625 91.960938 66.320312 91.785156 66.144531 C 91.613281 65.972656 91.523438 65.761719 91.523438 65.515625 C 91.523438 65.339844 91.464844 65.195312 91.339844 65.070312 C 91.21875 64.949219 91.074219 64.890625 90.898438 64.890625 C 90.726562 64.890625 90.578125 64.949219 90.457031 65.070312 C 90.335938 65.195312 90.273438 65.339844 90.273438 65.515625 C 90.273438 65.796875 90.328125 66.070312 90.4375 66.332031 C 90.546875 66.597656 90.703125 66.828125 90.902344 67.027344 C 91.101562 67.230469 91.335938 67.382812 91.597656 67.492188 C 91.859375 67.601562 92.132812 67.65625 92.417969 67.65625 C 92.699219 67.65625 92.972656 67.601562 93.238281 67.492188 C 93.5 67.382812 93.730469 67.230469 93.933594 67.027344 C 94.132812 66.828125 94.289062 66.597656 94.394531 66.332031 C 94.503906 66.070312 94.558594 65.796875 94.558594 65.515625 C 94.558594 65.339844 94.5 65.195312 94.375 65.070312 C 94.253906 64.949219 94.105469 64.890625 93.933594 64.890625 Z M 96.433594 59.890625 C 96.261719 59.890625 96.113281 59.953125 95.992188 60.074219 C 95.871094 60.195312 95.808594 60.34375 95.808594 60.515625 C 95.808594 60.761719 95.722656 60.972656 95.546875 61.148438 C 95.375 61.320312 95.164062 61.40625 94.917969 61.40625 C 94.667969 61.40625 94.460938 61.320312 94.285156 61.148438 C 94.109375 60.972656 94.023438 60.761719 94.023438 60.515625 C 94.023438 60.34375 93.960938 60.195312 93.839844 60.074219 C 93.71875 59.953125 93.570312 59.890625 93.398438 59.890625 C 93.226562 59.890625 93.078125 59.953125 92.957031 60.074219 C 92.835938 60.195312 92.773438 60.34375 92.773438 60.515625 C 92.773438 60.800781 92.828125 61.074219 92.9375 61.335938 C 93.046875 61.597656 93.199219 61.828125 93.402344 62.03125 C 93.601562 62.230469 93.835938 62.386719 94.097656 62.496094 C 94.359375 62.601562 94.632812 62.65625 94.917969 62.65625 C 95.199219 62.65625 95.472656 62.601562 95.734375 62.496094 C 96 62.386719 96.230469 62.230469 96.429688 62.03125 C 96.632812 61.828125 96.785156 61.597656 96.894531 61.335938 C 97.003906 61.074219 97.058594 60.800781 97.058594 60.515625 C 97.058594 60.34375 96.996094 60.195312 96.875 60.074219 C 96.753906 59.953125 96.605469 59.890625 96.433594 59.890625 Z M 96.433594 59.890625 " fill-opacity="1" fill-rule="nonzero"/><g clip-path="url(#90acc99478)"><path fill="#545454" d="M 135.589844 162.152344 C 134.917969 162.152344 134.375 161.609375 134.375 160.9375 L 134.375 26.054688 C 134.375 25.386719 134.917969 24.839844 135.589844 24.839844 C 136.261719 24.839844 136.804688 25.386719 136.804688 26.054688 L 136.804688 160.9375 C 136.804688 161.609375 136.261719 162.152344 135.589844 162.152344 Z M 135.589844 162.152344 " fill-opacity="1" fill-rule="nonzero"/></g><g fill="#545454" fill-opacity="1"><g transform="translate(53.189376, 134.432137)"><g><path d="M 3.980469 0.113281 C 3.492188 0.113281 3.042969 0.0234375 2.632812 -0.152344 C 2.222656 -0.332031 1.867188 -0.578125 1.566406 -0.898438 C 1.265625 -1.21875 1.03125 -1.59375 0.863281 -2.027344 C 0.699219 -2.460938 0.613281 -2.9375 0.613281 -3.460938 C 0.613281 -3.980469 0.699219 -4.457031 0.863281 -4.890625 C 1.03125 -5.328125 1.265625 -5.703125 1.566406 -6.027344 C 1.867188 -6.347656 2.222656 -6.597656 2.632812 -6.777344 C 3.042969 -6.953125 3.492188 -7.039062 3.980469 -7.039062 C 4.453125 -7.039062 4.875 -6.957031 5.25 -6.789062 C 5.625 -6.621094 5.941406 -6.40625 6.199219 -6.144531 C 6.457031 -5.878906 6.640625 -5.601562 6.753906 -5.3125 L 6.054688 -5.003906 C 5.882812 -5.40625 5.617188 -5.730469 5.257812 -5.976562 C 4.902344 -6.21875 4.476562 -6.34375 3.980469 -6.34375 C 3.472656 -6.34375 3.019531 -6.222656 2.621094 -5.980469 C 2.226562 -5.738281 1.914062 -5.402344 1.691406 -4.972656 C 1.46875 -4.539062 1.359375 -4.035156 1.359375 -3.460938 C 1.359375 -2.890625 1.46875 -2.386719 1.691406 -1.953125 C 1.914062 -1.519531 2.226562 -1.183594 2.621094 -0.945312 C 3.019531 -0.707031 3.472656 -0.585938 3.980469 -0.585938 C 4.476562 -0.585938 4.902344 -0.707031 5.257812 -0.949219 C 5.617188 -1.191406 5.882812 -1.511719 6.054688 -1.914062 L 6.753906 -1.609375 C 6.640625 -1.324219 6.457031 -1.050781 6.199219 -0.785156 C 5.941406 -0.523438 5.625 -0.308594 5.25 -0.140625 C 4.875 0.0273438 4.453125 0.113281 3.980469 0.113281 Z M 3.980469 0.113281 "/></g></g></g><g fill="#545454" fill-opacity="1"><g transform="translate(60.452173, 134.432137)"><g><path d="M 0.714844 0 L 0.714844 -7.039062 L 1.414062 -7.039062 L 1.414062 -4.019531 L 1.253906 -4.054688 C 1.378906 -4.378906 1.582031 -4.632812 1.863281 -4.816406 C 2.148438 -5.003906 2.472656 -5.097656 2.847656 -5.097656 C 3.199219 -5.097656 3.515625 -5.015625 3.800781 -4.855469 C 4.082031 -4.695312 4.304688 -4.472656 4.46875 -4.191406 C 4.632812 -3.90625 4.714844 -3.589844 4.714844 -3.238281 L 4.714844 0 L 4.019531 0 L 4.019531 -2.96875 C 4.019531 -3.269531 3.960938 -3.527344 3.851562 -3.738281 C 3.738281 -3.949219 3.585938 -4.113281 3.390625 -4.226562 C 3.195312 -4.34375 2.972656 -4.398438 2.726562 -4.398438 C 2.476562 -4.398438 2.253906 -4.34375 2.054688 -4.226562 C 1.855469 -4.113281 1.699219 -3.949219 1.585938 -3.734375 C 1.472656 -3.519531 1.414062 -3.265625 1.414062 -2.96875 L 1.414062 0 Z M 0.714844 0 "/></g></g></g><g fill="#545454" fill-opacity="1"><g transform="translate(65.780709, 134.432137)"><g><path d="M 0.714844 0 L 0.714844 -4.984375 L 1.414062 -4.984375 L 1.414062 0 Z M 0.714844 -5.90625 L 0.714844 -6.929688 L 1.414062 -6.929688 L 1.414062 -5.90625 Z M 0.714844 -5.90625 "/></g></g></g><g fill="#545454" fill-opacity="1"><g transform="translate(67.910258, 134.432137)"><g><path d="M 2.984375 0.113281 C 2.519531 0.113281 2.101562 0 1.726562 -0.226562 C 1.351562 -0.453125 1.054688 -0.765625 0.835938 -1.164062 C 0.621094 -1.558594 0.511719 -2.007812 0.511719 -2.511719 C 0.511719 -3.011719 0.617188 -3.457031 0.828125 -3.847656 C 1.039062 -4.234375 1.324219 -4.539062 1.6875 -4.761719 C 2.050781 -4.984375 2.457031 -5.097656 2.910156 -5.097656 C 3.269531 -5.097656 3.589844 -5.03125 3.875 -4.898438 C 4.15625 -4.761719 4.394531 -4.582031 4.59375 -4.355469 C 4.792969 -4.132812 4.945312 -3.875 5.050781 -3.59375 C 5.15625 -3.3125 5.207031 -3.023438 5.207031 -2.726562 C 5.207031 -2.664062 5.207031 -2.59375 5.199219 -2.515625 C 5.191406 -2.4375 5.183594 -2.359375 5.171875 -2.277344 L 0.957031 -2.277344 L 0.957031 -2.929688 L 4.769531 -2.929688 L 4.4375 -2.652344 C 4.492188 -2.992188 4.453125 -3.296875 4.320312 -3.566406 C 4.1875 -3.835938 3.996094 -4.050781 3.75 -4.207031 C 3.5 -4.367188 3.222656 -4.445312 2.910156 -4.445312 C 2.601562 -4.445312 2.3125 -4.363281 2.050781 -4.203125 C 1.789062 -4.042969 1.582031 -3.816406 1.433594 -3.53125 C 1.285156 -3.242188 1.222656 -2.898438 1.253906 -2.5 C 1.222656 -2.105469 1.289062 -1.757812 1.445312 -1.464844 C 1.605469 -1.171875 1.820312 -0.941406 2.097656 -0.78125 C 2.375 -0.621094 2.667969 -0.539062 2.984375 -0.539062 C 3.351562 -0.539062 3.660156 -0.625 3.90625 -0.800781 C 4.15625 -0.972656 4.355469 -1.191406 4.511719 -1.449219 L 5.105469 -1.132812 C 5.007812 -0.910156 4.855469 -0.707031 4.648438 -0.515625 C 4.445312 -0.328125 4.203125 -0.175781 3.921875 -0.0585938 C 3.636719 0.0546875 3.328125 0.113281 2.984375 0.113281 Z M 2.984375 0.113281 "/></g></g></g><g fill="#545454" fill-opacity="1"><g transform="translate(73.62936, 134.432137)"><g><path d="M 1.226562 0 L 1.226562 -4.289062 L 0.234375 -4.289062 L 0.234375 -4.984375 L 1.226562 -4.984375 L 1.226562 -5.429688 C 1.226562 -5.777344 1.304688 -6.070312 1.460938 -6.308594 C 1.613281 -6.550781 1.820312 -6.730469 2.074219 -6.855469 C 2.328125 -6.980469 2.601562 -7.039062 2.890625 -7.039062 C 2.953125 -7.039062 3.027344 -7.035156 3.105469 -7.027344 C 3.1875 -7.015625 3.253906 -7.007812 3.300781 -6.992188 L 3.300781 -6.363281 C 3.257812 -6.375 3.199219 -6.382812 3.125 -6.386719 C 3.050781 -6.386719 2.996094 -6.390625 2.96875 -6.390625 C 2.667969 -6.390625 2.421875 -6.316406 2.222656 -6.175781 C 2.023438 -6.03125 1.925781 -5.785156 1.925781 -5.429688 L 1.925781 -4.984375 L 3.144531 -4.984375 L 3.144531 -4.289062 L 1.925781 -4.289062 L 1.925781 0 Z M 1.226562 0 "/></g></g></g><g fill="#545454" fill-opacity="1"><g transform="translate(77.284004, 134.432137)"><g/></g></g><g fill="#545454" fill-opacity="1"><g transform="translate(78.864898, 134.432137)"><g><path d="M 0.820312 0 L 0.820312 -6.929688 L 5.28125 -6.929688 L 5.28125 -6.230469 L 1.5625 -6.230469 L 1.5625 -3.824219 L 5.097656 -3.824219 L 5.097656 -3.125 L 1.5625 -3.125 L 1.5625 -0.699219 L 5.28125 -0.699219 L 5.28125 0 Z M 0.820312 0 "/></g></g></g><g fill="#545454" fill-opacity="1"><g transform="translate(84.556106, 134.432137)"><g><path d="M 2.96875 0.113281 C 2.5 0.113281 2.082031 0 1.710938 -0.226562 C 1.339844 -0.453125 1.046875 -0.765625 0.832031 -1.15625 C 0.617188 -1.550781 0.511719 -1.996094 0.511719 -2.492188 C 0.511719 -2.996094 0.617188 -3.441406 0.832031 -3.832031 C 1.046875 -4.222656 1.335938 -4.53125 1.707031 -4.757812 C 2.074219 -4.984375 2.496094 -5.097656 2.96875 -5.097656 C 3.394531 -5.097656 3.777344 -5.003906 4.109375 -4.816406 C 4.445312 -4.632812 4.710938 -4.378906 4.902344 -4.0625 L 4.789062 -3.867188 L 4.789062 -7.039062 L 5.488281 -7.039062 L 5.488281 0 L 4.789062 0 L 4.789062 -1.117188 L 4.902344 -1.015625 C 4.726562 -0.652344 4.46875 -0.375 4.125 -0.179688 C 3.78125 0.015625 3.394531 0.113281 2.96875 0.113281 Z M 3.003906 -0.585938 C 3.339844 -0.585938 3.640625 -0.667969 3.910156 -0.835938 C 4.179688 -1.003906 4.394531 -1.230469 4.550781 -1.519531 C 4.710938 -1.808594 4.789062 -2.132812 4.789062 -2.492188 C 4.789062 -2.851562 4.710938 -3.175781 4.550781 -3.464844 C 4.394531 -3.753906 4.179688 -3.980469 3.910156 -4.148438 C 3.640625 -4.316406 3.339844 -4.398438 3.003906 -4.398438 C 2.675781 -4.398438 2.378906 -4.316406 2.109375 -4.148438 C 1.84375 -3.980469 1.636719 -3.753906 1.484375 -3.46875 C 1.332031 -3.183594 1.253906 -2.859375 1.253906 -2.492188 C 1.253906 -2.132812 1.332031 -1.808594 1.484375 -1.519531 C 1.636719 -1.230469 1.84375 -1.003906 2.105469 -0.835938 C 2.371094 -0.667969 2.667969 -0.585938 3.003906 -0.585938 Z M 3.003906 -0.585938 "/></g></g></g><g fill="#545454" fill-opacity="1"><g transform="translate(90.758781, 134.432137)"><g><path d="M 2.484375 0.113281 C 2.136719 0.113281 1.820312 0.03125 1.535156 -0.136719 C 1.25 -0.300781 1.023438 -0.527344 0.859375 -0.824219 C 0.695312 -1.117188 0.613281 -1.457031 0.613281 -1.839844 L 0.613281 -4.984375 L 1.3125 -4.984375 L 1.3125 -1.925781 C 1.3125 -1.660156 1.367188 -1.425781 1.472656 -1.222656 C 1.582031 -1.023438 1.734375 -0.863281 1.929688 -0.753906 C 2.125 -0.640625 2.351562 -0.585938 2.605469 -0.585938 C 2.859375 -0.585938 3.085938 -0.644531 3.28125 -0.757812 C 3.480469 -0.871094 3.636719 -1.035156 3.75 -1.25 C 3.859375 -1.464844 3.914062 -1.71875 3.914062 -2.019531 L 3.914062 -4.984375 L 4.613281 -4.984375 L 4.613281 0 L 3.914062 0 L 3.914062 -0.96875 L 4.074219 -0.929688 C 3.957031 -0.609375 3.753906 -0.351562 3.46875 -0.167969 C 3.183594 0.0195312 2.855469 0.113281 2.484375 0.113281 Z M 2.484375 0.113281 "/></g></g></g><g fill="#545454" fill-opacity="1"><g transform="translate(96.087317, 134.432137)"><g><path d="M 2.996094 0.113281 C 2.503906 0.113281 2.074219 -0.00390625 1.703125 -0.234375 C 1.328125 -0.460938 1.039062 -0.773438 0.828125 -1.167969 C 0.617188 -1.5625 0.511719 -2.003906 0.511719 -2.5 C 0.511719 -2.996094 0.617188 -3.441406 0.828125 -3.832031 C 1.039062 -4.222656 1.328125 -4.53125 1.703125 -4.757812 C 2.074219 -4.984375 2.503906 -5.097656 2.996094 -5.097656 C 3.304688 -5.097656 3.597656 -5.039062 3.867188 -4.929688 C 4.140625 -4.816406 4.382812 -4.667969 4.59375 -4.476562 C 4.804688 -4.289062 4.964844 -4.070312 5.070312 -3.824219 L 4.4375 -3.496094 C 4.3125 -3.765625 4.125 -3.980469 3.867188 -4.148438 C 3.613281 -4.316406 3.324219 -4.398438 2.996094 -4.398438 C 2.667969 -4.398438 2.371094 -4.316406 2.105469 -4.152344 C 1.84375 -3.988281 1.636719 -3.761719 1.484375 -3.472656 C 1.332031 -3.183594 1.253906 -2.859375 1.253906 -2.492188 C 1.253906 -2.132812 1.332031 -1.808594 1.484375 -1.519531 C 1.636719 -1.230469 1.84375 -1.003906 2.105469 -0.835938 C 2.371094 -0.667969 2.667969 -0.585938 2.996094 -0.585938 C 3.324219 -0.585938 3.613281 -0.667969 3.863281 -0.835938 C 4.117188 -1.003906 4.304688 -1.226562 4.4375 -1.507812 L 5.070312 -1.164062 C 4.964844 -0.921875 4.804688 -0.703125 4.59375 -0.511719 C 4.382812 -0.320312 4.140625 -0.167969 3.867188 -0.0546875 C 3.597656 0.0546875 3.304688 0.113281 2.996094 0.113281 Z M 2.996094 0.113281 "/></g></g></g><g fill="#545454" fill-opacity="1"><g transform="translate(101.666928, 134.432137)"><g><path d="M 2.15625 0.113281 C 1.839844 0.113281 1.558594 0.0507812 1.3125 -0.0703125 C 1.0625 -0.191406 0.867188 -0.355469 0.726562 -0.566406 C 0.582031 -0.777344 0.511719 -1.019531 0.511719 -1.292969 C 0.511719 -1.554688 0.566406 -1.789062 0.679688 -2.003906 C 0.789062 -2.21875 0.964844 -2.398438 1.199219 -2.546875 C 1.433594 -2.695312 1.734375 -2.800781 2.101562 -2.863281 L 4.054688 -3.191406 L 4.054688 -2.558594 L 2.269531 -2.261719 C 1.910156 -2.199219 1.652344 -2.082031 1.492188 -1.914062 C 1.335938 -1.75 1.253906 -1.550781 1.253906 -1.320312 C 1.253906 -1.097656 1.34375 -0.910156 1.519531 -0.753906 C 1.699219 -0.597656 1.925781 -0.519531 2.203125 -0.519531 C 2.546875 -0.519531 2.84375 -0.59375 3.097656 -0.738281 C 3.351562 -0.886719 3.550781 -1.082031 3.691406 -1.328125 C 3.835938 -1.578125 3.90625 -1.855469 3.90625 -2.15625 L 3.90625 -3.421875 C 3.90625 -3.71875 3.796875 -3.960938 3.582031 -4.148438 C 3.363281 -4.335938 3.082031 -4.425781 2.734375 -4.425781 C 2.429688 -4.425781 2.164062 -4.351562 1.933594 -4.199219 C 1.707031 -4.046875 1.535156 -3.851562 1.421875 -3.609375 L 0.789062 -3.953125 C 0.882812 -4.164062 1.03125 -4.355469 1.230469 -4.53125 C 1.433594 -4.703125 1.664062 -4.839844 1.925781 -4.941406 C 2.1875 -5.046875 2.457031 -5.097656 2.734375 -5.097656 C 3.101562 -5.097656 3.425781 -5.027344 3.707031 -4.882812 C 3.988281 -4.742188 4.207031 -4.542969 4.367188 -4.292969 C 4.523438 -4.042969 4.605469 -3.75 4.605469 -3.421875 L 4.605469 0 L 3.90625 0 L 3.90625 -0.996094 L 4.007812 -0.894531 C 3.921875 -0.707031 3.785156 -0.539062 3.605469 -0.386719 C 3.421875 -0.234375 3.207031 -0.113281 2.960938 -0.0234375 C 2.71875 0.0664062 2.449219 0.113281 2.15625 0.113281 Z M 2.15625 0.113281 "/></g></g></g><g fill="#545454" fill-opacity="1"><g transform="translate(106.986159, 134.432137)"><g><path d="M 2.621094 0.0546875 C 2.175781 0.0546875 1.832031 -0.0742188 1.589844 -0.335938 C 1.347656 -0.59375 1.226562 -0.96875 1.226562 -1.449219 L 1.226562 -4.289062 L 0.308594 -4.289062 L 0.308594 -4.984375 L 0.539062 -4.984375 C 0.75 -4.984375 0.917969 -5.054688 1.042969 -5.195312 C 1.164062 -5.332031 1.226562 -5.507812 1.226562 -5.71875 L 1.226562 -6.136719 L 1.925781 -6.136719 L 1.925781 -4.984375 L 3.023438 -4.984375 L 3.023438 -4.289062 L 1.925781 -4.289062 L 1.925781 -1.449219 C 1.925781 -1.285156 1.949219 -1.136719 2 -1.007812 C 2.050781 -0.882812 2.132812 -0.78125 2.253906 -0.707031 C 2.375 -0.632812 2.539062 -0.59375 2.742188 -0.59375 C 2.792969 -0.59375 2.851562 -0.597656 2.921875 -0.605469 C 2.988281 -0.609375 3.046875 -0.617188 3.097656 -0.625 L 3.097656 0 C 3.023438 0.0195312 2.9375 0.03125 2.847656 0.0429688 C 2.753906 0.0507812 2.679688 0.0546875 2.621094 0.0546875 Z M 2.621094 0.0546875 "/></g></g></g><g fill="#545454" fill-opacity="1"><g transform="translate(110.594311, 134.432137)"><g><path d="M 0.714844 0 L 0.714844 -4.984375 L 1.414062 -4.984375 L 1.414062 0 Z M 0.714844 -5.90625 L 0.714844 -6.929688 L 1.414062 -6.929688 L 1.414062 -5.90625 Z M 0.714844 -5.90625 "/></g></g></g><g fill="#545454" fill-opacity="1"><g transform="translate(112.72386, 134.432137)"><g><path d="M 3.050781 0.113281 C 2.578125 0.113281 2.152344 0 1.765625 -0.226562 C 1.382812 -0.453125 1.078125 -0.765625 0.851562 -1.15625 C 0.625 -1.550781 0.511719 -2 0.511719 -2.5 C 0.511719 -2.996094 0.625 -3.441406 0.847656 -3.832031 C 1.070312 -4.222656 1.371094 -4.53125 1.753906 -4.757812 C 2.132812 -4.984375 2.566406 -5.097656 3.050781 -5.097656 C 3.535156 -5.097656 3.964844 -4.984375 4.347656 -4.761719 C 4.730469 -4.539062 5.03125 -4.230469 5.25 -3.839844 C 5.46875 -3.449219 5.582031 -3.003906 5.582031 -2.5 C 5.582031 -1.992188 5.464844 -1.542969 5.234375 -1.148438 C 5.007812 -0.753906 4.703125 -0.445312 4.320312 -0.222656 C 3.9375 0 3.515625 0.113281 3.050781 0.113281 Z M 3.050781 -0.585938 C 3.386719 -0.585938 3.6875 -0.667969 3.957031 -0.835938 C 4.226562 -1.003906 4.441406 -1.234375 4.597656 -1.523438 C 4.757812 -1.816406 4.835938 -2.140625 4.835938 -2.5 C 4.835938 -2.863281 4.757812 -3.183594 4.597656 -3.46875 C 4.441406 -3.753906 4.226562 -3.980469 3.957031 -4.148438 C 3.6875 -4.316406 3.386719 -4.398438 3.050781 -4.398438 C 2.714844 -4.398438 2.414062 -4.316406 2.144531 -4.148438 C 1.875 -3.980469 1.660156 -3.753906 1.496094 -3.46875 C 1.335938 -3.183594 1.253906 -2.863281 1.253906 -2.5 C 1.253906 -2.140625 1.335938 -1.816406 1.496094 -1.523438 C 1.660156 -1.234375 1.875 -1.003906 2.144531 -0.835938 C 2.414062 -0.667969 2.714844 -0.585938 3.050781 -0.585938 Z M 3.050781 -0.585938 "/></g></g></g><g fill="#545454" fill-opacity="1"><g transform="translate(118.814938, 134.432137)"><g><path d="M 0.714844 0 L 0.714844 -4.984375 L 1.414062 -4.984375 L 1.414062 -4.019531 L 1.253906 -4.054688 C 1.378906 -4.378906 1.582031 -4.632812 1.863281 -4.816406 C 2.148438 -5.003906 2.472656 -5.097656 2.847656 -5.097656 C 3.199219 -5.097656 3.515625 -5.015625 3.800781 -4.855469 C 4.082031 -4.695312 4.304688 -4.472656 4.46875 -4.191406 C 4.632812 -3.90625 4.714844 -3.589844 4.714844 -3.238281 L 4.714844 0 L 4.019531 0 L 4.019531 -2.96875 C 4.019531 -3.269531 3.964844 -3.527344 3.855469 -3.738281 C 3.746094 -3.949219 3.59375 -4.113281 3.398438 -4.226562 C 3.203125 -4.34375 2.980469 -4.398438 2.726562 -4.398438 C 2.472656 -4.398438 2.246094 -4.34375 2.046875 -4.226562 C 1.847656 -4.113281 1.691406 -3.949219 1.582031 -3.734375 C 1.46875 -3.519531 1.414062 -3.265625 1.414062 -2.96875 L 1.414062 0 Z M 0.714844 0 "/></g></g></g><g fill="#545454" fill-opacity="1"><g transform="translate(61.169628, 146.991222)"><g><path d="M 4.082031 0.113281 C 3.597656 0.113281 3.148438 0.0234375 2.730469 -0.152344 C 2.3125 -0.332031 1.945312 -0.578125 1.628906 -0.898438 C 1.3125 -1.21875 1.0625 -1.59375 0.882812 -2.03125 C 0.703125 -2.46875 0.613281 -2.949219 0.613281 -3.46875 C 0.613281 -3.988281 0.703125 -4.46875 0.882812 -4.90625 C 1.0625 -5.34375 1.3125 -5.722656 1.628906 -6.039062 C 1.945312 -6.359375 2.3125 -6.605469 2.730469 -6.78125 C 3.148438 -6.953125 3.597656 -7.039062 4.082031 -7.039062 C 4.566406 -7.039062 5.019531 -6.953125 5.4375 -6.777344 C 5.855469 -6.597656 6.222656 -6.351562 6.539062 -6.03125 C 6.855469 -5.710938 7.101562 -5.335938 7.28125 -4.902344 C 7.460938 -4.46875 7.550781 -3.988281 7.550781 -3.46875 C 7.550781 -2.949219 7.460938 -2.46875 7.28125 -2.03125 C 7.101562 -1.59375 6.855469 -1.21875 6.539062 -0.898438 C 6.222656 -0.578125 5.855469 -0.332031 5.4375 -0.152344 C 5.019531 0.0234375 4.566406 0.113281 4.082031 0.113281 Z M 4.082031 -0.585938 C 4.484375 -0.585938 4.851562 -0.660156 5.183594 -0.808594 C 5.515625 -0.957031 5.804688 -1.164062 6.046875 -1.433594 C 6.289062 -1.699219 6.476562 -2.003906 6.609375 -2.351562 C 6.742188 -2.699219 6.808594 -3.074219 6.808594 -3.46875 C 6.808594 -3.859375 6.742188 -4.230469 6.609375 -4.574219 C 6.476562 -4.921875 6.289062 -5.230469 6.046875 -5.496094 C 5.804688 -5.761719 5.515625 -5.972656 5.183594 -6.121094 C 4.851562 -6.269531 4.484375 -6.34375 4.082031 -6.34375 C 3.679688 -6.34375 3.3125 -6.269531 2.980469 -6.121094 C 2.648438 -5.972656 2.363281 -5.761719 2.121094 -5.496094 C 1.878906 -5.230469 1.691406 -4.921875 1.558594 -4.574219 C 1.425781 -4.230469 1.359375 -3.859375 1.359375 -3.46875 C 1.359375 -3.074219 1.425781 -2.699219 1.558594 -2.351562 C 1.691406 -2.003906 1.878906 -1.699219 2.121094 -1.433594 C 2.363281 -1.164062 2.652344 -0.957031 2.984375 -0.808594 C 3.320312 -0.660156 3.6875 -0.585938 4.082031 -0.585938 Z M 4.082031 -0.585938 "/></g></g></g><g fill="#545454" fill-opacity="1"><g transform="translate(69.334468, 146.991222)"><g><path d="M 1.226562 0 L 1.226562 -4.289062 L 0.234375 -4.289062 L 0.234375 -4.984375 L 1.226562 -4.984375 L 1.226562 -5.429688 C 1.226562 -5.777344 1.304688 -6.070312 1.460938 -6.308594 C 1.613281 -6.550781 1.820312 -6.730469 2.074219 -6.855469 C 2.328125 -6.980469 2.601562 -7.039062 2.890625 -7.039062 C 2.953125 -7.039062 3.027344 -7.035156 3.105469 -7.027344 C 3.1875 -7.015625 3.253906 -7.007812 3.300781 -6.992188 L 3.300781 -6.363281 C 3.257812 -6.375 3.199219 -6.382812 3.125 -6.386719 C 3.050781 -6.386719 2.996094 -6.390625 2.96875 -6.390625 C 2.667969 -6.390625 2.421875 -6.316406 2.222656 -6.175781 C 2.023438 -6.03125 1.925781 -5.785156 1.925781 -5.429688 L 1.925781 -4.984375 L 3.144531 -4.984375 L 3.144531 -4.289062 L 1.925781 -4.289062 L 1.925781 0 Z M 1.226562 0 "/></g></g></g><g fill="#545454" fill-opacity="1"><g transform="translate(72.989113, 146.991222)"><g><path d="M 1.226562 0 L 1.226562 -4.289062 L 0.234375 -4.289062 L 0.234375 -4.984375 L 1.226562 -4.984375 L 1.226562 -5.429688 C 1.226562 -5.777344 1.304688 -6.070312 1.460938 -6.308594 C 1.613281 -6.550781 1.820312 -6.730469 2.074219 -6.855469 C 2.328125 -6.980469 2.601562 -7.039062 2.890625 -7.039062 C 2.953125 -7.039062 3.027344 -7.035156 3.105469 -7.027344 C 3.1875 -7.015625 3.253906 -7.007812 3.300781 -6.992188 L 3.300781 -6.363281 C 3.257812 -6.375 3.199219 -6.382812 3.125 -6.386719 C 3.050781 -6.386719 2.996094 -6.390625 2.96875 -6.390625 C 2.667969 -6.390625 2.421875 -6.316406 2.222656 -6.175781 C 2.023438 -6.03125 1.925781 -5.785156 1.925781 -5.429688 L 1.925781 -4.984375 L 3.144531 -4.984375 L 3.144531 -4.289062 L 1.925781 -4.289062 L 1.925781 0 Z M 1.226562 0 "/></g></g></g><g fill="#545454" fill-opacity="1"><g transform="translate(76.643758, 146.991222)"><g><path d="M 0.714844 0 L 0.714844 -4.984375 L 1.414062 -4.984375 L 1.414062 0 Z M 0.714844 -5.90625 L 0.714844 -6.929688 L 1.414062 -6.929688 L 1.414062 -5.90625 Z M 0.714844 -5.90625 "/></g></g></g><g fill="#545454" fill-opacity="1"><g transform="translate(78.773307, 146.991222)"><g><path d="M 2.996094 0.113281 C 2.503906 0.113281 2.074219 -0.00390625 1.703125 -0.234375 C 1.328125 -0.460938 1.039062 -0.773438 0.828125 -1.167969 C 0.617188 -1.5625 0.511719 -2.003906 0.511719 -2.5 C 0.511719 -2.996094 0.617188 -3.441406 0.828125 -3.832031 C 1.039062 -4.222656 1.328125 -4.53125 1.703125 -4.757812 C 2.074219 -4.984375 2.503906 -5.097656 2.996094 -5.097656 C 3.304688 -5.097656 3.597656 -5.039062 3.867188 -4.929688 C 4.140625 -4.816406 4.382812 -4.667969 4.59375 -4.476562 C 4.804688 -4.289062 4.964844 -4.070312 5.070312 -3.824219 L 4.4375 -3.496094 C 4.3125 -3.765625 4.125 -3.980469 3.867188 -4.148438 C 3.613281 -4.316406 3.324219 -4.398438 2.996094 -4.398438 C 2.667969 -4.398438 2.371094 -4.316406 2.105469 -4.152344 C 1.84375 -3.988281 1.636719 -3.761719 1.484375 -3.472656 C 1.332031 -3.183594 1.253906 -2.859375 1.253906 -2.492188 C 1.253906 -2.132812 1.332031 -1.808594 1.484375 -1.519531 C 1.636719 -1.230469 1.84375 -1.003906 2.105469 -0.835938 C 2.371094 -0.667969 2.667969 -0.585938 2.996094 -0.585938 C 3.324219 -0.585938 3.613281 -0.667969 3.863281 -0.835938 C 4.117188 -1.003906 4.304688 -1.226562 4.4375 -1.507812 L 5.070312 -1.164062 C 4.964844 -0.921875 4.804688 -0.703125 4.59375 -0.511719 C 4.382812 -0.320312 4.140625 -0.167969 3.867188 -0.0546875 C 3.597656 0.0546875 3.304688 0.113281 2.996094 0.113281 Z M 2.996094 0.113281 "/></g></g></g><g fill="#545454" fill-opacity="1"><g transform="translate(84.352918, 146.991222)"><g><path d="M 2.984375 0.113281 C 2.519531 0.113281 2.101562 0 1.726562 -0.226562 C 1.351562 -0.453125 1.054688 -0.765625 0.835938 -1.164062 C 0.621094 -1.558594 0.511719 -2.007812 0.511719 -2.511719 C 0.511719 -3.011719 0.617188 -3.457031 0.828125 -3.847656 C 1.039062 -4.234375 1.324219 -4.539062 1.6875 -4.761719 C 2.050781 -4.984375 2.457031 -5.097656 2.910156 -5.097656 C 3.269531 -5.097656 3.589844 -5.03125 3.875 -4.898438 C 4.15625 -4.761719 4.394531 -4.582031 4.59375 -4.355469 C 4.792969 -4.132812 4.945312 -3.875 5.050781 -3.59375 C 5.15625 -3.3125 5.207031 -3.023438 5.207031 -2.726562 C 5.207031 -2.664062 5.207031 -2.59375 5.199219 -2.515625 C 5.191406 -2.4375 5.183594 -2.359375 5.171875 -2.277344 L 0.957031 -2.277344 L 0.957031 -2.929688 L 4.769531 -2.929688 L 4.4375 -2.652344 C 4.492188 -2.992188 4.453125 -3.296875 4.320312 -3.566406 C 4.1875 -3.835938 3.996094 -4.050781 3.75 -4.207031 C 3.5 -4.367188 3.222656 -4.445312 2.910156 -4.445312 C 2.601562 -4.445312 2.3125 -4.363281 2.050781 -4.203125 C 1.789062 -4.042969 1.582031 -3.816406 1.433594 -3.53125 C 1.285156 -3.242188 1.222656 -2.898438 1.253906 -2.5 C 1.222656 -2.105469 1.289062 -1.757812 1.445312 -1.464844 C 1.605469 -1.171875 1.820312 -0.941406 2.097656 -0.78125 C 2.375 -0.621094 2.667969 -0.539062 2.984375 -0.539062 C 3.351562 -0.539062 3.660156 -0.625 3.90625 -0.800781 C 4.15625 -0.972656 4.355469 -1.191406 4.511719 -1.449219 L 5.105469 -1.132812 C 5.007812 -0.910156 4.855469 -0.707031 4.648438 -0.515625 C 4.445312 -0.328125 4.203125 -0.175781 3.921875 -0.0585938 C 3.636719 0.0546875 3.328125 0.113281 2.984375 0.113281 Z M 2.984375 0.113281 "/></g></g></g><g fill="#545454" fill-opacity="1"><g transform="translate(90.07202, 146.991222)"><g/></g></g><g fill="#545454" fill-opacity="1"><g transform="translate(91.652914, 146.991222)"><g><path d="M 0.820312 0 L 0.820312 -6.929688 L 3.097656 -6.929688 C 3.785156 -6.929688 4.382812 -6.789062 4.890625 -6.503906 C 5.402344 -6.222656 5.792969 -5.824219 6.074219 -5.304688 C 6.351562 -4.789062 6.492188 -4.175781 6.492188 -3.46875 C 6.492188 -2.769531 6.351562 -2.15625 6.074219 -1.636719 C 5.792969 -1.117188 5.402344 -0.714844 4.890625 -0.429688 C 4.382812 -0.144531 3.785156 0 3.097656 0 Z M 1.5625 -0.699219 L 3.097656 -0.699219 C 3.628906 -0.699219 4.09375 -0.8125 4.484375 -1.035156 C 4.875 -1.261719 5.175781 -1.585938 5.390625 -2 C 5.605469 -2.414062 5.710938 -2.90625 5.710938 -3.46875 C 5.710938 -4.035156 5.601562 -4.523438 5.386719 -4.933594 C 5.167969 -5.347656 4.863281 -5.664062 4.472656 -5.890625 C 4.082031 -6.117188 3.625 -6.230469 3.097656 -6.230469 L 1.5625 -6.230469 Z M 1.5625 -0.699219 "/></g></g></g><g fill="#545454" fill-opacity="1"><g transform="translate(98.553039, 146.991222)"><g><path d="M 3.050781 0.113281 C 2.578125 0.113281 2.152344 0 1.765625 -0.226562 C 1.382812 -0.453125 1.078125 -0.765625 0.851562 -1.15625 C 0.625 -1.550781 0.511719 -2 0.511719 -2.5 C 0.511719 -2.996094 0.625 -3.441406 0.847656 -3.832031 C 1.070312 -4.222656 1.371094 -4.53125 1.753906 -4.757812 C 2.132812 -4.984375 2.566406 -5.097656 3.050781 -5.097656 C 3.535156 -5.097656 3.964844 -4.984375 4.347656 -4.761719 C 4.730469 -4.539062 5.03125 -4.230469 5.25 -3.839844 C 5.46875 -3.449219 5.582031 -3.003906 5.582031 -2.5 C 5.582031 -1.992188 5.464844 -1.542969 5.234375 -1.148438 C 5.007812 -0.753906 4.703125 -0.445312 4.320312 -0.222656 C 3.9375 0 3.515625 0.113281 3.050781 0.113281 Z M 3.050781 -0.585938 C 3.386719 -0.585938 3.6875 -0.667969 3.957031 -0.835938 C 4.226562 -1.003906 4.441406 -1.234375 4.597656 -1.523438 C 4.757812 -1.816406 4.835938 -2.140625 4.835938 -2.5 C 4.835938 -2.863281 4.757812 -3.183594 4.597656 -3.46875 C 4.441406 -3.753906 4.226562 -3.980469 3.957031 -4.148438 C 3.6875 -4.316406 3.386719 -4.398438 3.050781 -4.398438 C 2.714844 -4.398438 2.414062 -4.316406 2.144531 -4.148438 C 1.875 -3.980469 1.660156 -3.753906 1.496094 -3.46875 C 1.335938 -3.183594 1.253906 -2.863281 1.253906 -2.5 C 1.253906 -2.140625 1.335938 -1.816406 1.496094 -1.523438 C 1.660156 -1.234375 1.875 -1.003906 2.144531 -0.835938 C 2.414062 -0.667969 2.714844 -0.585938 3.050781 -0.585938 Z M 3.050781 -0.585938 "/></g></g></g><g fill="#545454" fill-opacity="1"><g transform="translate(104.644117, 146.991222)"><g><path d="M 2.96875 0.113281 C 2.5 0.113281 2.082031 0 1.710938 -0.226562 C 1.339844 -0.453125 1.046875 -0.765625 0.832031 -1.15625 C 0.617188 -1.550781 0.511719 -1.996094 0.511719 -2.492188 C 0.511719 -2.996094 0.617188 -3.441406 0.832031 -3.832031 C 1.046875 -4.222656 1.335938 -4.53125 1.707031 -4.757812 C 2.074219 -4.984375 2.496094 -5.097656 2.96875 -5.097656 C 3.394531 -5.097656 3.777344 -5.003906 4.109375 -4.816406 C 4.445312 -4.632812 4.710938 -4.378906 4.902344 -4.0625 L 4.789062 -3.867188 L 4.789062 -7.039062 L 5.488281 -7.039062 L 5.488281 0 L 4.789062 0 L 4.789062 -1.117188 L 4.902344 -1.015625 C 4.726562 -0.652344 4.46875 -0.375 4.125 -0.179688 C 3.78125 0.015625 3.394531 0.113281 2.96875 0.113281 Z M 3.003906 -0.585938 C 3.339844 -0.585938 3.640625 -0.667969 3.910156 -0.835938 C 4.179688 -1.003906 4.394531 -1.230469 4.550781 -1.519531 C 4.710938 -1.808594 4.789062 -2.132812 4.789062 -2.492188 C 4.789062 -2.851562 4.710938 -3.175781 4.550781 -3.464844 C 4.394531 -3.753906 4.179688 -3.980469 3.910156 -4.148438 C 3.640625 -4.316406 3.339844 -4.398438 3.003906 -4.398438 C 2.675781 -4.398438 2.378906 -4.316406 2.109375 -4.148438 C 1.84375 -3.980469 1.636719 -3.753906 1.484375 -3.46875 C 1.332031 -3.183594 1.253906 -2.859375 1.253906 -2.492188 C 1.253906 -2.132812 1.332031 -1.808594 1.484375 -1.519531 C 1.636719 -1.230469 1.84375 -1.003906 2.105469 -0.835938 C 2.371094 -0.667969 2.667969 -0.585938 3.003906 -0.585938 Z M 3.003906 -0.585938 "/></g></g></g><g fill="#545454" fill-opacity="1"><g transform="translate(110.846792, 146.991222)"><g><path d="M 2.15625 0.113281 C 1.839844 0.113281 1.558594 0.0507812 1.3125 -0.0703125 C 1.0625 -0.191406 0.867188 -0.355469 0.726562 -0.566406 C 0.582031 -0.777344 0.511719 -1.019531 0.511719 -1.292969 C 0.511719 -1.554688 0.566406 -1.789062 0.679688 -2.003906 C 0.789062 -2.21875 0.964844 -2.398438 1.199219 -2.546875 C 1.433594 -2.695312 1.734375 -2.800781 2.101562 -2.863281 L 4.054688 -3.191406 L 4.054688 -2.558594 L 2.269531 -2.261719 C 1.910156 -2.199219 1.652344 -2.082031 1.492188 -1.914062 C 1.335938 -1.75 1.253906 -1.550781 1.253906 -1.320312 C 1.253906 -1.097656 1.34375 -0.910156 1.519531 -0.753906 C 1.699219 -0.597656 1.925781 -0.519531 2.203125 -0.519531 C 2.546875 -0.519531 2.84375 -0.59375 3.097656 -0.738281 C 3.351562 -0.886719 3.550781 -1.082031 3.691406 -1.328125 C 3.835938 -1.578125 3.90625 -1.855469 3.90625 -2.15625 L 3.90625 -3.421875 C 3.90625 -3.71875 3.796875 -3.960938 3.582031 -4.148438 C 3.363281 -4.335938 3.082031 -4.425781 2.734375 -4.425781 C 2.429688 -4.425781 2.164062 -4.351562 1.933594 -4.199219 C 1.707031 -4.046875 1.535156 -3.851562 1.421875 -3.609375 L 0.789062 -3.953125 C 0.882812 -4.164062 1.03125 -4.355469 1.230469 -4.53125 C 1.433594 -4.703125 1.664062 -4.839844 1.925781 -4.941406 C 2.1875 -5.046875 2.457031 -5.097656 2.734375 -5.097656 C 3.101562 -5.097656 3.425781 -5.027344 3.707031 -4.882812 C 3.988281 -4.742188 4.207031 -4.542969 4.367188 -4.292969 C 4.523438 -4.042969 4.605469 -3.75 4.605469 -3.421875 L 4.605469 0 L 3.90625 0 L 3.90625 -0.996094 L 4.007812 -0.894531 C 3.921875 -0.707031 3.785156 -0.539062 3.605469 -0.386719 C 3.421875 -0.234375 3.207031 -0.113281 2.960938 -0.0234375 C 2.71875 0.0664062 2.449219 0.113281 2.15625 0.113281 Z M 2.15625 0.113281 "/></g></g></g><g fill="#377dff" fill-opacity="1"><g transform="translate(148.085096, 55.695386)"><g><path d="M 1.734375 0 L 1.734375 -17.875 L 4.984375 -17.875 L 4.984375 0 Z M 1.734375 0 "/></g></g></g><g fill="#377dff" fill-opacity="1"><g transform="translate(154.77672, 55.695386)"><g><path d="M 1.734375 0 L 1.734375 -17.875 L 4.265625 -17.875 L 14.109375 -4.625 L 12.796875 -4.375 L 12.796875 -17.875 L 16.0625 -17.875 L 16.0625 0 L 13.484375 0 L 3.796875 -13.34375 L 4.984375 -13.609375 L 4.984375 0 Z M 1.734375 0 "/></g></g></g><g fill="#377dff" fill-opacity="1"><g transform="translate(172.549103, 55.695386)"><g><path d="M 4.890625 0 L 4.890625 -15 L 0.265625 -15 L 0.265625 -17.875 L 12.75 -17.875 L 12.75 -15 L 8.1875 -15 L 8.1875 0 Z M 4.890625 0 "/></g></g></g><g fill="#377dff" fill-opacity="1"><g transform="translate(185.548611, 55.695386)"><g><path d="M 1.734375 0 L 1.734375 -17.875 L 13.609375 -17.875 L 13.609375 -15 L 4.984375 -15 L 4.984375 -10.421875 L 13.125 -10.421875 L 13.125 -7.53125 L 4.984375 -7.53125 L 4.984375 -2.875 L 13.609375 -2.875 L 13.609375 0 Z M 1.734375 0 "/></g></g></g><g fill="#377dff" fill-opacity="1"><g transform="translate(199.819285, 55.695386)"><g><path d="M 10.203125 0.28125 C 8.921875 0.28125 7.734375 0.0507812 6.640625 -0.40625 C 5.554688 -0.875 4.601562 -1.519531 3.78125 -2.34375 C 2.96875 -3.175781 2.332031 -4.148438 1.875 -5.265625 C 1.425781 -6.390625 1.203125 -7.617188 1.203125 -8.953125 C 1.203125 -10.273438 1.421875 -11.5 1.859375 -12.625 C 2.296875 -13.757812 2.914062 -14.738281 3.71875 -15.5625 C 4.53125 -16.382812 5.476562 -17.023438 6.5625 -17.484375 C 7.65625 -17.941406 8.84375 -18.171875 10.125 -18.171875 C 11.40625 -18.171875 12.550781 -17.953125 13.5625 -17.515625 C 14.582031 -17.085938 15.441406 -16.515625 16.140625 -15.796875 C 16.847656 -15.085938 17.351562 -14.3125 17.65625 -13.46875 L 14.765625 -12.078125 C 14.421875 -13.003906 13.847656 -13.753906 13.046875 -14.328125 C 12.253906 -14.898438 11.28125 -15.1875 10.125 -15.1875 C 9.007812 -15.1875 8.019531 -14.921875 7.15625 -14.390625 C 6.300781 -13.867188 5.640625 -13.144531 5.171875 -12.21875 C 4.703125 -11.289062 4.46875 -10.203125 4.46875 -8.953125 C 4.46875 -7.703125 4.707031 -6.609375 5.1875 -5.671875 C 5.675781 -4.734375 6.351562 -4 7.21875 -3.46875 C 8.082031 -2.945312 9.078125 -2.6875 10.203125 -2.6875 C 11.109375 -2.6875 11.945312 -2.863281 12.71875 -3.21875 C 13.488281 -3.582031 14.101562 -4.097656 14.5625 -4.765625 C 15.03125 -5.429688 15.265625 -6.21875 15.265625 -7.125 L 15.265625 -8.5 L 16.75 -7.203125 L 10.125 -7.203125 L 10.125 -9.953125 L 18.53125 -9.953125 L 18.53125 -8.15625 C 18.53125 -6.78125 18.296875 -5.5625 17.828125 -4.5 C 17.367188 -3.445312 16.742188 -2.566406 15.953125 -1.859375 C 15.160156 -1.148438 14.265625 -0.613281 13.265625 -0.25 C 12.273438 0.101562 11.253906 0.28125 10.203125 0.28125 Z M 10.203125 0.28125 "/></g></g></g><g fill="#377dff" fill-opacity="1"><g transform="translate(219.198624, 55.695386)"><g><path d="M 1.734375 0 L 1.734375 -17.875 L 8.375 -17.875 C 9.59375 -17.875 10.671875 -17.65625 11.609375 -17.21875 C 12.546875 -16.78125 13.273438 -16.140625 13.796875 -15.296875 C 14.328125 -14.460938 14.59375 -13.441406 14.59375 -12.234375 C 14.59375 -11.003906 14.300781 -9.957031 13.71875 -9.09375 C 13.132812 -8.226562 12.347656 -7.585938 11.359375 -7.171875 L 15.453125 0 L 11.765625 0 L 7.375 -7.84375 L 9.484375 -6.59375 L 4.984375 -6.59375 L 4.984375 0 Z M 4.984375 -9.484375 L 8.421875 -9.484375 C 9.015625 -9.484375 9.523438 -9.597656 9.953125 -9.828125 C 10.390625 -10.054688 10.726562 -10.378906 10.96875 -10.796875 C 11.207031 -11.210938 11.328125 -11.691406 11.328125 -12.234375 C 11.328125 -12.796875 11.207031 -13.28125 10.96875 -13.6875 C 10.726562 -14.09375 10.390625 -14.410156 9.953125 -14.640625 C 9.523438 -14.878906 9.015625 -15 8.421875 -15 L 4.984375 -15 Z M 4.984375 -9.484375 "/></g></g></g><g fill="#377dff" fill-opacity="1"><g transform="translate(235.052269, 55.695386)"><g><path d="M 0.265625 0 L 6.4375 -17.875 L 10.65625 -17.875 L 16.828125 0 L 13.265625 0 L 12 -3.84375 L 5.09375 -3.84375 L 3.796875 0 Z M 6.03125 -6.71875 L 11.0625 -6.71875 L 8.09375 -15.625 L 9 -15.625 Z M 6.03125 -6.71875 "/></g></g></g><g fill="#377dff" fill-opacity="1"><g transform="translate(252.129107, 55.695386)"><g><path d="M 4.890625 0 L 4.890625 -15 L 0.265625 -15 L 0.265625 -17.875 L 12.75 -17.875 L 12.75 -15 L 8.1875 -15 L 8.1875 0 Z M 4.890625 0 "/></g></g></g><g fill="#377dff" fill-opacity="1"><g transform="translate(265.128615, 55.695386)"><g><path d="M 1.734375 0 L 1.734375 -17.875 L 13.609375 -17.875 L 13.609375 -15 L 4.984375 -15 L 4.984375 -10.421875 L 13.125 -10.421875 L 13.125 -7.53125 L 4.984375 -7.53125 L 4.984375 -2.875 L 13.609375 -2.875 L 13.609375 0 Z M 1.734375 0 "/></g></g></g><g fill="#377dff" fill-opacity="1"><g transform="translate(279.399289, 55.695386)"><g><path d="M 1.734375 0 L 1.734375 -17.875 L 7.5625 -17.875 C 9.445312 -17.875 11.085938 -17.492188 12.484375 -16.734375 C 13.890625 -15.972656 14.972656 -14.925781 15.734375 -13.59375 C 16.503906 -12.257812 16.890625 -10.710938 16.890625 -8.953125 C 16.890625 -7.210938 16.503906 -5.664062 15.734375 -4.3125 C 14.972656 -2.957031 13.890625 -1.898438 12.484375 -1.140625 C 11.085938 -0.378906 9.445312 0 7.5625 0 Z M 4.984375 -2.875 L 7.625 -2.875 C 8.84375 -2.875 9.894531 -3.125 10.78125 -3.625 C 11.675781 -4.132812 12.367188 -4.84375 12.859375 -5.75 C 13.359375 -6.65625 13.609375 -7.722656 13.609375 -8.953125 C 13.609375 -10.203125 13.359375 -11.273438 12.859375 -12.171875 C 12.367188 -13.066406 11.675781 -13.757812 10.78125 -14.25 C 9.894531 -14.75 8.84375 -15 7.625 -15 L 4.984375 -15 Z M 4.984375 -2.875 "/></g></g></g><g fill="#377dff" fill-opacity="1"><g transform="translate(148.085096, 84.649279)"><g><path d="M 1.734375 0 L 1.734375 -17.875 L 4.84375 -17.875 L 11.546875 -8.78125 L 10.0625 -8.78125 L 16.609375 -17.875 L 19.734375 -17.875 L 19.734375 0 L 16.4375 0 L 16.4375 -14.15625 L 17.71875 -13.84375 L 10.921875 -4.796875 L 10.53125 -4.796875 L 3.90625 -13.84375 L 4.984375 -14.15625 L 4.984375 0 Z M 1.734375 0 "/></g></g></g><g fill="#377dff" fill-opacity="1"><g transform="translate(169.503106, 84.649279)"><g><path d="M 0.265625 0 L 6.4375 -17.875 L 10.65625 -17.875 L 16.828125 0 L 13.265625 0 L 12 -3.84375 L 5.09375 -3.84375 L 3.796875 0 Z M 6.03125 -6.71875 L 11.0625 -6.71875 L 8.09375 -15.625 L 9 -15.625 Z M 6.03125 -6.71875 "/></g></g></g><g fill="#377dff" fill-opacity="1"><g transform="translate(186.579944, 84.649279)"><g><path d="M 1.734375 0 L 1.734375 -17.875 L 4.265625 -17.875 L 14.109375 -4.625 L 12.796875 -4.375 L 12.796875 -17.875 L 16.0625 -17.875 L 16.0625 0 L 13.484375 0 L 3.796875 -13.34375 L 4.984375 -13.609375 L 4.984375 0 Z M 1.734375 0 "/></g></g></g><g fill="#377dff" fill-opacity="1"><g transform="translate(204.352327, 84.649279)"><g><path d="M 0.265625 0 L 6.4375 -17.875 L 10.65625 -17.875 L 16.828125 0 L 13.265625 0 L 12 -3.84375 L 5.09375 -3.84375 L 3.796875 0 Z M 6.03125 -6.71875 L 11.0625 -6.71875 L 8.09375 -15.625 L 9 -15.625 Z M 6.03125 -6.71875 "/></g></g></g><g fill="#377dff" fill-opacity="1"><g transform="translate(221.429165, 84.649279)"><g><path d="M 10.203125 0.28125 C 8.921875 0.28125 7.734375 0.0507812 6.640625 -0.40625 C 5.554688 -0.875 4.601562 -1.519531 3.78125 -2.34375 C 2.96875 -3.175781 2.332031 -4.148438 1.875 -5.265625 C 1.425781 -6.390625 1.203125 -7.617188 1.203125 -8.953125 C 1.203125 -10.273438 1.421875 -11.5 1.859375 -12.625 C 2.296875 -13.757812 2.914062 -14.738281 3.71875 -15.5625 C 4.53125 -16.382812 5.476562 -17.023438 6.5625 -17.484375 C 7.65625 -17.941406 8.84375 -18.171875 10.125 -18.171875 C 11.40625 -18.171875 12.550781 -17.953125 13.5625 -17.515625 C 14.582031 -17.085938 15.441406 -16.515625 16.140625 -15.796875 C 16.847656 -15.085938 17.351562 -14.3125 17.65625 -13.46875 L 14.765625 -12.078125 C 14.421875 -13.003906 13.847656 -13.753906 13.046875 -14.328125 C 12.253906 -14.898438 11.28125 -15.1875 10.125 -15.1875 C 9.007812 -15.1875 8.019531 -14.921875 7.15625 -14.390625 C 6.300781 -13.867188 5.640625 -13.144531 5.171875 -12.21875 C 4.703125 -11.289062 4.46875 -10.203125 4.46875 -8.953125 C 4.46875 -7.703125 4.707031 -6.609375 5.1875 -5.671875 C 5.675781 -4.734375 6.351562 -4 7.21875 -3.46875 C 8.082031 -2.945312 9.078125 -2.6875 10.203125 -2.6875 C 11.109375 -2.6875 11.945312 -2.863281 12.71875 -3.21875 C 13.488281 -3.582031 14.101562 -4.097656 14.5625 -4.765625 C 15.03125 -5.429688 15.265625 -6.21875 15.265625 -7.125 L 15.265625 -8.5 L 16.75 -7.203125 L 10.125 -7.203125 L 10.125 -9.953125 L 18.53125 -9.953125 L 18.53125 -8.15625 C 18.53125 -6.78125 18.296875 -5.5625 17.828125 -4.5 C 17.367188 -3.445312 16.742188 -2.566406 15.953125 -1.859375 C 15.160156 -1.148438 14.265625 -0.613281 13.265625 -0.25 C 12.273438 0.101562 11.253906 0.28125 10.203125 0.28125 Z M 10.203125 0.28125 "/></g></g></g><g fill="#377dff" fill-opacity="1"><g transform="translate(240.808504, 84.649279)"><g><path d="M 1.734375 0 L 1.734375 -17.875 L 13.609375 -17.875 L 13.609375 -15 L 4.984375 -15 L 4.984375 -10.421875 L 13.125 -10.421875 L 13.125 -7.53125 L 4.984375 -7.53125 L 4.984375 -2.875 L 13.609375 -2.875 L 13.609375 0 Z M 1.734375 0 "/></g></g></g><g fill="#377dff" fill-opacity="1"><g transform="translate(255.079179, 84.649279)"><g><path d="M 1.734375 0 L 1.734375 -17.875 L 4.84375 -17.875 L 11.546875 -8.78125 L 10.0625 -8.78125 L 16.609375 -17.875 L 19.734375 -17.875 L 19.734375 0 L 16.4375 0 L 16.4375 -14.15625 L 17.71875 -13.84375 L 10.921875 -4.796875 L 10.53125 -4.796875 L 3.90625 -13.84375 L 4.984375 -14.15625 L 4.984375 0 Z M 1.734375 0 "/></g></g></g><g fill="#377dff" fill-opacity="1"><g transform="translate(276.497189, 84.649279)"><g><path d="M 1.734375 0 L 1.734375 -17.875 L 13.609375 -17.875 L 13.609375 -15 L 4.984375 -15 L 4.984375 -10.421875 L 13.125 -10.421875 L 13.125 -7.53125 L 4.984375 -7.53125 L 4.984375 -2.875 L 13.609375 -2.875 L 13.609375 0 Z M 1.734375 0 "/></g></g></g><g fill="#377dff" fill-opacity="1"><g transform="translate(290.767863, 84.649279)"><g><path d="M 1.734375 0 L 1.734375 -17.875 L 4.265625 -17.875 L 14.109375 -4.625 L 12.796875 -4.375 L 12.796875 -17.875 L 16.0625 -17.875 L 16.0625 0 L 13.484375 0 L 3.796875 -13.34375 L 4.984375 -13.609375 L 4.984375 0 Z M 1.734375 0 "/></g></g></g><g fill="#377dff" fill-opacity="1"><g transform="translate(308.540245, 84.649279)"><g><path d="M 4.890625 0 L 4.890625 -15 L 0.265625 -15 L 0.265625 -17.875 L 12.75 -17.875 L 12.75 -15 L 8.1875 -15 L 8.1875 0 Z M 4.890625 0 "/></g></g></g><g fill="#377dff" fill-opacity="1"><g transform="translate(148.085096, 112.905441)"><g><path d="M 8.109375 0.28125 C 6.972656 0.28125 5.921875 0.078125 4.953125 -0.328125 C 3.984375 -0.742188 3.148438 -1.320312 2.453125 -2.0625 C 1.765625 -2.8125 1.257812 -3.6875 0.9375 -4.6875 L 3.640625 -5.859375 C 4.078125 -4.828125 4.703125 -4.019531 5.515625 -3.4375 C 6.335938 -2.851562 7.257812 -2.5625 8.28125 -2.5625 C 8.851562 -2.5625 9.351562 -2.65625 9.78125 -2.84375 C 10.207031 -3.03125 10.535156 -3.28125 10.765625 -3.59375 C 10.992188 -3.914062 11.109375 -4.300781 11.109375 -4.75 C 11.109375 -5.28125 10.953125 -5.71875 10.640625 -6.0625 C 10.328125 -6.40625 9.859375 -6.671875 9.234375 -6.859375 L 5.8125 -7.96875 C 4.414062 -8.394531 3.363281 -9.039062 2.65625 -9.90625 C 1.957031 -10.769531 1.609375 -11.785156 1.609375 -12.953125 C 1.609375 -13.984375 1.859375 -14.890625 2.359375 -15.671875 C 2.867188 -16.453125 3.570312 -17.0625 4.46875 -17.5 C 5.375 -17.945312 6.410156 -18.171875 7.578125 -18.171875 C 8.648438 -18.171875 9.632812 -17.984375 10.53125 -17.609375 C 11.425781 -17.234375 12.195312 -16.710938 12.84375 -16.046875 C 13.5 -15.378906 13.984375 -14.597656 14.296875 -13.703125 L 11.609375 -12.5 C 11.265625 -13.394531 10.738281 -14.085938 10.03125 -14.578125 C 9.320312 -15.066406 8.503906 -15.3125 7.578125 -15.3125 C 7.035156 -15.3125 6.554688 -15.21875 6.140625 -15.03125 C 5.722656 -14.851562 5.398438 -14.597656 5.171875 -14.265625 C 4.941406 -13.941406 4.828125 -13.554688 4.828125 -13.109375 C 4.828125 -12.609375 4.984375 -12.171875 5.296875 -11.796875 C 5.617188 -11.421875 6.109375 -11.128906 6.765625 -10.921875 L 10.0625 -9.890625 C 11.476562 -9.421875 12.539062 -8.78125 13.25 -7.96875 C 13.96875 -7.15625 14.328125 -6.144531 14.328125 -4.9375 C 14.328125 -3.914062 14.0625 -3.015625 13.53125 -2.234375 C 13.007812 -1.453125 12.28125 -0.835938 11.34375 -0.390625 C 10.414062 0.0546875 9.335938 0.28125 8.109375 0.28125 Z M 8.109375 0.28125 "/></g></g></g><g fill="#377dff" fill-opacity="1"><g transform="translate(163.602962, 112.905441)"><g><path d="M 6.28125 0 L 6.28125 -7.921875 L 0.265625 -17.875 L 3.984375 -17.875 L 8.59375 -10.109375 L 7.265625 -10.109375 L 11.859375 -17.875 L 15.578125 -17.875 L 9.578125 -7.9375 L 9.578125 0 Z M 6.28125 0 "/></g></g></g><g fill="#377dff" fill-opacity="1"><g transform="translate(179.432619, 112.905441)"><g><path d="M 8.109375 0.28125 C 6.972656 0.28125 5.921875 0.078125 4.953125 -0.328125 C 3.984375 -0.742188 3.148438 -1.320312 2.453125 -2.0625 C 1.765625 -2.8125 1.257812 -3.6875 0.9375 -4.6875 L 3.640625 -5.859375 C 4.078125 -4.828125 4.703125 -4.019531 5.515625 -3.4375 C 6.335938 -2.851562 7.257812 -2.5625 8.28125 -2.5625 C 8.851562 -2.5625 9.351562 -2.65625 9.78125 -2.84375 C 10.207031 -3.03125 10.535156 -3.28125 10.765625 -3.59375 C 10.992188 -3.914062 11.109375 -4.300781 11.109375 -4.75 C 11.109375 -5.28125 10.953125 -5.71875 10.640625 -6.0625 C 10.328125 -6.40625 9.859375 -6.671875 9.234375 -6.859375 L 5.8125 -7.96875 C 4.414062 -8.394531 3.363281 -9.039062 2.65625 -9.90625 C 1.957031 -10.769531 1.609375 -11.785156 1.609375 -12.953125 C 1.609375 -13.984375 1.859375 -14.890625 2.359375 -15.671875 C 2.867188 -16.453125 3.570312 -17.0625 4.46875 -17.5 C 5.375 -17.945312 6.410156 -18.171875 7.578125 -18.171875 C 8.648438 -18.171875 9.632812 -17.984375 10.53125 -17.609375 C 11.425781 -17.234375 12.195312 -16.710938 12.84375 -16.046875 C 13.5 -15.378906 13.984375 -14.597656 14.296875 -13.703125 L 11.609375 -12.5 C 11.265625 -13.394531 10.738281 -14.085938 10.03125 -14.578125 C 9.320312 -15.066406 8.503906 -15.3125 7.578125 -15.3125 C 7.035156 -15.3125 6.554688 -15.21875 6.140625 -15.03125 C 5.722656 -14.851562 5.398438 -14.597656 5.171875 -14.265625 C 4.941406 -13.941406 4.828125 -13.554688 4.828125 -13.109375 C 4.828125 -12.609375 4.984375 -12.171875 5.296875 -11.796875 C 5.617188 -11.421875 6.109375 -11.128906 6.765625 -10.921875 L 10.0625 -9.890625 C 11.476562 -9.421875 12.539062 -8.78125 13.25 -7.96875 C 13.96875 -7.15625 14.328125 -6.144531 14.328125 -4.9375 C 14.328125 -3.914062 14.0625 -3.015625 13.53125 -2.234375 C 13.007812 -1.453125 12.28125 -0.835938 11.34375 -0.390625 C 10.414062 0.0546875 9.335938 0.28125 8.109375 0.28125 Z M 8.109375 0.28125 "/></g></g></g><g fill="#377dff" fill-opacity="1"><g transform="translate(194.950485, 112.905441)"><g><path d="M 4.890625 0 L 4.890625 -15 L 0.265625 -15 L 0.265625 -17.875 L 12.75 -17.875 L 12.75 -15 L 8.1875 -15 L 8.1875 0 Z M 4.890625 0 "/></g></g></g><g fill="#377dff" fill-opacity="1"><g transform="translate(207.949993, 112.905441)"><g><path d="M 1.734375 0 L 1.734375 -17.875 L 13.609375 -17.875 L 13.609375 -15 L 4.984375 -15 L 4.984375 -10.421875 L 13.125 -10.421875 L 13.125 -7.53125 L 4.984375 -7.53125 L 4.984375 -2.875 L 13.609375 -2.875 L 13.609375 0 Z M 1.734375 0 "/></g></g></g><g fill="#377dff" fill-opacity="1"><g transform="translate(222.220667, 112.905441)"><g><path d="M 1.734375 0 L 1.734375 -17.875 L 4.84375 -17.875 L 11.546875 -8.78125 L 10.0625 -8.78125 L 16.609375 -17.875 L 19.734375 -17.875 L 19.734375 0 L 16.4375 0 L 16.4375 -14.15625 L 17.71875 -13.84375 L 10.921875 -4.796875 L 10.53125 -4.796875 L 3.90625 -13.84375 L 4.984375 -14.15625 L 4.984375 0 Z M 1.734375 0 "/></g></g></g><g fill="#545454" fill-opacity="1"><g transform="translate(148.085096, 144.491891)"><g><path d="M 5.039062 3.359375 C 3.773438 1.917969 2.8125 0.296875 2.148438 -1.511719 C 1.484375 -3.320312 1.152344 -5.238281 1.152344 -7.269531 C 1.152344 -9.316406 1.484375 -11.242188 2.148438 -13.042969 C 2.8125 -14.839844 3.773438 -16.453125 5.039062 -17.875 L 6.597656 -17.875 C 5.445312 -16.277344 4.570312 -14.574219 3.972656 -12.765625 C 3.371094 -10.957031 3.070312 -9.125 3.070312 -7.269531 C 3.070312 -5.414062 3.371094 -3.582031 3.972656 -1.777344 C 4.570312 0.03125 5.445312 1.742188 6.597656 3.359375 Z M 5.039062 3.359375 "/></g></g></g><g fill="#545454" fill-opacity="1"><g transform="translate(155.160472, 144.491891)"><g><path d="M 2.113281 -17.875 L 4.03125 -17.875 L 4.03125 0 L 2.113281 0 Z M 2.113281 -17.875 "/></g></g></g><g fill="#545454" fill-opacity="1"><g transform="translate(161.30046, 144.491891)"><g><path d="M 2.113281 0 L 2.113281 -17.875 L 3.792969 -17.875 L 10.507812 -8.132812 L 9.574219 -8.132812 L 16.269531 -17.875 L 17.949219 -17.875 L 17.949219 0 L 16.027344 0 L 16.027344 -15.285156 L 16.652344 -15.042969 L 10.078125 -5.519531 L 9.980469 -5.519531 L 3.429688 -15.042969 L 4.03125 -15.285156 L 4.03125 0 Z M 2.113281 0 "/></g></g></g><g fill="#545454" fill-opacity="1"><g transform="translate(181.351358, 144.491891)"><g><path d="M 8.132812 0.289062 C 7 0.289062 5.964844 0.0703125 5.039062 -0.359375 C 4.109375 -0.792969 3.328125 -1.371094 2.6875 -2.097656 C 2.046875 -2.828125 1.589844 -3.632812 1.320312 -4.511719 L 3.046875 -5.160156 C 3.464844 -3.941406 4.109375 -3.019531 4.992188 -2.386719 C 5.871094 -1.753906 6.917969 -1.441406 8.132812 -1.441406 C 8.902344 -1.441406 9.578125 -1.5625 10.160156 -1.8125 C 10.746094 -2.058594 11.199219 -2.40625 11.515625 -2.855469 C 11.835938 -3.304688 11.996094 -3.824219 11.996094 -4.414062 C 11.996094 -5.292969 11.757812 -5.976562 11.277344 -6.453125 C 10.796875 -6.933594 10.109375 -7.300781 9.214844 -7.558594 L 6 -8.519531 C 4.734375 -8.886719 3.761719 -9.5 3.082031 -10.367188 C 2.402344 -11.230469 2.0625 -12.214844 2.0625 -13.316406 C 2.0625 -14.261719 2.296875 -15.097656 2.757812 -15.824219 C 3.222656 -16.550781 3.859375 -17.125 4.667969 -17.539062 C 5.476562 -17.957031 6.390625 -18.164062 7.414062 -18.164062 C 8.484375 -18.164062 9.449219 -17.96875 10.304688 -17.578125 C 11.160156 -17.183594 11.886719 -16.667969 12.476562 -16.027344 C 13.070312 -15.390625 13.492188 -14.675781 13.75 -13.894531 L 12.070312 -13.222656 C 11.683594 -14.277344 11.089844 -15.078125 10.28125 -15.621094 C 9.472656 -16.164062 8.527344 -16.4375 7.4375 -16.4375 C 6.75 -16.4375 6.148438 -16.316406 5.625 -16.078125 C 5.105469 -15.835938 4.703125 -15.492188 4.414062 -15.042969 C 4.128906 -14.597656 3.984375 -14.070312 3.984375 -13.460938 C 3.984375 -12.726562 4.214844 -12.066406 4.679688 -11.480469 C 5.144531 -10.898438 5.855469 -10.460938 6.816406 -10.171875 L 9.644531 -9.335938 C 11.054688 -8.917969 12.117188 -8.316406 12.835938 -7.535156 C 13.558594 -6.75 13.917969 -5.765625 13.917969 -4.582031 C 13.917969 -3.625 13.671875 -2.78125 13.183594 -2.050781 C 12.695312 -1.324219 12.015625 -0.75 11.144531 -0.335938 C 10.273438 0.078125 9.269531 0.289062 8.132812 0.289062 Z M 8.132812 0.289062 "/></g></g></g><g fill="#545454" fill-opacity="1"><g transform="translate(196.845237, 144.491891)"><g><path d="M 0.480469 3.359375 C 1.632812 1.742188 2.507812 0.03125 3.105469 -1.777344 C 3.707031 -3.582031 4.007812 -5.414062 4.007812 -7.269531 C 4.007812 -9.125 3.707031 -10.957031 3.105469 -12.765625 C 2.507812 -14.574219 1.632812 -16.277344 0.480469 -17.875 L 2.039062 -17.875 C 3.320312 -16.453125 4.285156 -14.839844 4.941406 -13.042969 C 5.597656 -11.242188 5.925781 -9.316406 5.925781 -7.269531 C 5.925781 -5.238281 5.597656 -3.320312 4.941406 -1.511719 C 4.285156 0.296875 3.320312 1.917969 2.039062 3.359375 Z M 0.480469 3.359375 "/></g></g></g></svg>